<svg xmlns="http://www.w3.org/2000/svg" version="1.1" xmlns:xlink="http://www.w3.org/1999/xlink" width="120" height="120"><svg width="120" height="120" viewBox="0 0 120 120" fill="none" xmlns="http://www.w3.org/2000/svg">
<path d="M73.3554 12.8719C74.8342 12.4419 77.0863 11.6032 77.0863 11.6032C77.0863 11.6032 75.5002 12.9565 74.3815 13.6876C74.3815 13.6876 72.74 14.7724 71.2101 15.4094L67.2928 17.0406L62.536 18.0375L57.6858 18.3094L54.4215 18.0375C54.4215 18.0375 52.2 17.7317 50.7838 17.4938C49.1015 17.2112 48.1628 17.0253 46.4933 16.6782C44.4805 16.2596 41.3635 15.5001 41.3635 15.5001L37.0728 14.3219C35.3974 13.8618 34.5467 13.4791 32.8758 13.1438C31.1147 12.7905 30.1034 12.5707 28.3053 12.6001C26.7243 12.6259 25.8087 12.7001 24.2949 13.1438C22.8284 13.5736 22.0298 13.9569 20.7505 14.775C19.5426 15.5475 18.9355 16.101 17.9523 17.1313C16.8526 18.2838 16.369 19.0517 15.5273 20.3938C14.5355 21.9751 13.9965 22.9 13.382 24.6531C12.5383 27.06 12.5784 28.5538 12.3561 31.0874C12.0806 34.2259 12.176 36.0081 12.3561 39.1529C12.5495 42.5323 12.83 44.4204 13.382 47.7622C14.0195 51.6207 14.5585 53.7568 15.5273 57.5497C16.7433 62.3104 17.5644 64.9505 19.1649 69.6026C21.4873 76.3529 23.151 80.0201 26.0669 86.5494C28.2078 91.343 28.9603 94.2858 31.8497 98.6929C32.6096 99.8521 32.9412 100.584 33.9017 101.593C34.5323 102.255 34.817 102.786 35.674 103.134C36.1881 103.342 36.5179 103.359 37.0728 103.405C37.5084 103.442 37.7692 103.513 38.1922 103.405C38.9415 103.215 39.6844 102.137 39.6844 102.137C39.6844 102.137 40.5756 100.631 40.9903 99.5991C41.5109 98.3039 41.5491 97.4979 41.9231 96.1554C42.2786 94.8792 42.407 94.1414 42.8558 92.893C43.197 91.9444 43.4379 91.417 43.8485 90.5189L43.8817 90.4463C44.2917 89.5493 45.001 88.1806 45.001 88.1806C45.001 88.1806 45.9519 86.6916 46.6799 85.8244C47.4126 84.9514 48.7319 83.7401 48.7319 83.7401C48.7319 83.7401 49.7776 82.8665 50.504 82.3807C51.2707 81.8679 51.7163 81.593 52.556 81.2026C53.3982 80.8109 53.9203 80.5286 54.7944 80.3869L57.0331 80.0243C57.9072 79.8829 58.2902 79.9243 59.0849 80.0243C59.7158 80.1038 60.6706 80.3869 60.6706 80.3869L63.0024 85.4619C63.0024 85.4619 61.4017 85.3315 60.3908 85.4619C59.7248 85.5477 59.3507 85.6227 58.7119 85.8244C57.8286 86.1031 57.349 86.3353 56.5667 86.8212C55.6312 87.4022 55.1596 87.8281 54.4215 88.6337C53.5277 89.6088 53.2346 90.3161 52.556 91.4431C51.9717 92.4134 51.6175 92.9491 51.1569 93.9805C50.5792 95.2742 50.0376 97.4243 50.0376 97.4243C50.0376 97.4243 49.3649 99.7235 49.1049 101.231C48.8809 102.53 48.9035 103.277 48.7319 104.584C48.5173 106.217 48.4913 107.155 48.079 108.752C47.7902 109.87 47.6072 110.499 47.1462 111.562C46.6651 112.67 46.3579 113.29 45.654 114.28C44.9058 115.332 44.4073 115.887 43.4153 116.727C42.547 117.462 42.0603 117.944 40.9903 118.358C40.028 118.731 39.4147 118.806 38.3787 118.812C37.3068 118.818 36.6939 118.679 35.674 118.358C34.5888 118.018 34.0073 117.71 33.0624 117.09C31.9515 116.361 31.4461 115.787 30.544 114.824C29.1703 113.357 28.6879 112.308 27.5592 110.655C25.2104 107.217 23.9631 105.234 21.9631 101.593C18.7292 95.7058 17.495 92.12 14.9676 85.915C13.3942 82.0519 11.1435 75.9464 11.1435 75.9464C11.1435 75.9464 9.51096 71.3751 8.53194 68.4245C7.50314 65.3239 6.92765 63.5839 6.01362 60.4497C5.19231 57.6332 4.77252 56.0426 4.05492 53.1997L3.98798 52.9346C3.15777 49.646 2.67145 47.7196 2.00294 44.3184C1.45591 41.5353 1.1646 39.9692 0.790423 37.1591C0.377452 34.0578 0.152311 32.3098 0.0442541 29.1843C-0.0193357 27.345 -0.00998201 26.3115 0.0442541 24.4718C0.110095 22.2386 0.0656956 20.9703 0.417339 18.7625C0.610705 17.5484 0.757548 16.8717 1.07024 15.6813C1.50607 14.0221 1.78909 13.0922 2.4693 11.5126C3.03516 10.1985 3.35159 9.44595 4.14819 8.25012C5.17219 6.71289 5.92153 5.94389 7.31942 4.71577C8.40011 3.76632 9.05018 3.26172 10.3041 2.5408C11.6091 1.79051 12.4142 1.47839 13.8484 1.00018C15.3024 0.515403 16.1455 0.265143 17.6725 0.0939444C19.0837 -0.0642652 19.8924 0.00654482 21.3101 0.0939444C22.9244 0.193462 23.8297 0.320995 25.414 0.637689C27.1194 0.978589 28.0638 1.24979 29.7044 1.8158C31.4263 2.40973 32.3354 2.88571 33.9949 3.62828C37.191 5.05841 38.8803 6.0651 42.0163 7.61574C44.8182 9.00124 46.2923 9.98416 49.1983 11.1501C51.4767 12.0643 52.7954 12.4924 55.1676 13.1438C56.4683 13.501 57.1976 13.7133 58.5253 13.9594L58.5405 13.9623C59.5077 14.1416 60.0578 14.2436 61.0437 14.3219C62.278 14.42 62.977 14.3589 64.2149 14.3219C65.4186 14.286 66.0965 14.275 67.2928 14.1407C68.3934 14.0171 69.0063 13.9064 70.091 13.6876C71.3797 13.4276 72.0945 13.2387 73.3554 12.8719Z" fill="#0F2650"></path>
<path d="M53.2093 23.7468L49.8514 21.6625L54.515 23.1124C54.515 23.1124 57.125 23.44 58.8054 23.5655C60.2963 23.6769 62.6295 23.7468 62.6295 23.7468C62.6295 23.7468 64.9642 23.2092 66.4536 22.8406C68.0977 22.4339 69.0474 22.2912 70.6509 21.753C72.3778 21.1736 73.2953 20.7111 74.9414 19.9407C79.0498 18.0177 84.9214 14.0501 84.9214 14.0501C87.6058 12.3895 88.9906 11.2733 91.7302 9.70015C93.8349 8.49159 94.9602 7.67464 97.2332 6.80017C98.5829 6.28098 99.3636 6.03141 100.778 5.71269C102.213 5.38916 103.036 5.21782 104.508 5.16894C105.932 5.12166 106.751 5.157 108.146 5.44081C109.386 5.6932 110.073 5.92301 111.224 6.43767C112.098 6.82856 112.578 7.08316 113.369 7.61578C114.366 8.28716 114.911 8.71553 115.701 9.60952C116.333 10.3243 116.615 10.7872 117.1 11.6032C117.892 12.9352 118.195 13.7656 118.686 15.2282C119.115 16.5096 119.276 17.2556 119.525 18.5813C120.01 21.1635 119.952 22.6628 119.991 25.2875C120.058 29.6516 119.748 32.1081 119.152 36.4342C118.512 41.0848 117.834 43.6483 116.727 48.2153C114.562 57.1509 112.716 62.011 109.638 70.6901C107.589 76.4706 106.355 79.6853 104.042 85.3713C102.025 90.3285 100.819 93.0793 98.6323 97.9679C96.7216 102.239 95.6623 104.641 93.5957 108.843C92.6686 110.728 92.247 111.837 91.1707 113.646C90.7859 114.292 90.1446 115.277 90.1446 115.277C90.1446 115.277 88.8927 116.778 87.9061 117.543C86.9102 118.315 86.2867 118.703 85.108 119.174C84.0294 119.605 83.3733 119.756 82.2166 119.899C81.529 119.984 81.1367 120.019 80.4443 119.99C79.4452 119.947 78.8719 119.852 77.9261 119.537C77.0874 119.256 76.6486 118.997 75.8971 118.553L75.8741 118.54C74.7658 117.885 74.114 117.497 73.2625 116.546C72.4054 115.589 72.1464 114.881 71.5836 113.737C70.4709 111.473 70.4237 109.987 69.7182 107.574C68.4409 103.206 67.9343 100.7 66.6402 96.3367C65.8713 93.7439 65.4815 92.2761 64.5884 89.7213C63.6353 86.9953 63.0869 85.4644 61.8834 82.8338C60.7387 80.3317 60.0631 78.9319 58.6189 76.5808C56.972 73.8991 55.9271 72.4484 53.862 70.0557C51.6444 67.4862 50.2763 66.1167 47.6129 63.984C46.0443 62.728 45.1123 62.0809 43.4157 60.9934C41.4132 59.7096 40.2151 59.1014 38.0993 58.0028C35.6711 56.7419 34.2964 56.0451 31.7568 55.0122C30.1405 54.3548 29.2012 54.0665 27.5595 53.4715C25.3787 52.6811 21.9634 51.4779 21.9634 51.4779C21.9634 51.4779 26.0689 52.1327 28.6788 52.656C32.5723 53.4365 34.7498 53.9289 38.5657 55.0122C41.0645 55.7216 44.9082 57.006 44.9082 57.006C44.9082 57.006 48.6593 58.5517 50.9707 59.7246C53.4459 60.9808 54.8368 61.7061 57.1266 63.259C59.5664 64.9137 60.9067 65.9193 63.0027 67.9714C64.2022 69.146 64.8308 69.8507 65.8941 71.1433C67.2002 72.731 67.8931 73.6613 68.972 75.4025C70.5101 77.8846 71.1143 79.4247 72.2366 82.1087C73.1385 84.2659 73.5621 85.5087 74.2884 87.7275C75.5309 91.5229 76.1877 95.9265 76.8068 97.6961C77.426 99.4657 77.5868 100.458 78.2059 102.227C78.8251 103.997 78.9786 104.38 79.7916 105.49C80.1511 105.981 80.3819 106.262 80.9107 106.577C81.3929 106.865 81.8444 106.934 82.4032 106.849C83.0221 106.755 83.3317 106.526 83.8023 106.124C84.6994 105.357 85.083 104.724 85.7609 103.768C88.0733 100.507 88.2931 97.9967 89.8648 94.3431C92.5844 88.0215 96.0207 77.8494 96.0207 77.8494C97.7526 72.984 98.7805 70.272 100.311 65.3434C101.978 59.9764 102.852 56.9432 104.135 51.4779C104.814 48.5884 105.721 44.0466 105.721 44.0466C106.23 41.4695 106.647 40.0403 106.933 37.4312C107.154 35.4224 107.157 34.2849 107.213 32.2655C107.274 30.1075 107.4 29.003 107.213 26.7374C107.141 25.8648 106.911 25.4013 106.654 24.5625C106.4 23.7367 106.388 23.3844 105.907 22.4782C105.63 21.9543 105.442 21.673 105.068 21.2093C104.48 20.4805 104.042 20.2125 103.296 19.5781C102.655 19.0333 102.111 18.929 101.285 18.7705L101.244 18.7626C100.386 18.5979 99.0054 18.7626 99.0054 18.7626C99.0054 18.7626 97.341 18.8277 96.3005 19.0344C95.1382 19.2654 94.508 19.5062 93.4091 19.9407C91.9602 20.5133 91.2393 21.0277 89.8648 21.753C88.6183 22.4111 87.9557 22.8456 86.6936 23.475L86.6666 23.4884C85.4657 24.0872 84.7812 24.4284 83.5223 24.9249C82.049 25.5061 81.1785 25.7509 79.6696 26.1755L79.605 26.1937C77.8059 26.6999 76.789 26.9832 74.9414 27.2811C73.7113 27.4795 71.7702 27.6437 71.7702 27.6437H68.6923L65.1479 27.4624C65.1479 27.4624 63.4239 27.3415 62.3498 27.1C61.4182 26.8905 60.018 26.375 60.018 26.375L56.567 25.2875C55.2193 24.8627 53.2093 23.7468 53.2093 23.7468Z" fill="#44C6E9"></path>
</svg><style>@media (prefers-color-scheme: light) { :root { filter: none; } }
@media (prefers-color-scheme: dark) { :root { filter: none; } }
</style></svg>