<svg xmlns="http://www.w3.org/2000/svg" version="1.1" xmlns:xlink="http://www.w3.org/1999/xlink" width="120" height="124"><svg width="120" height="124" viewBox="0 0 120 124" fill="none" xmlns="http://www.w3.org/2000/svg">
<path d="M73.3554 13.2479C74.8342 12.8053 77.0863 11.9421 77.0863 11.9421C77.0863 11.9421 75.5002 13.3349 74.3815 14.0874C74.3815 14.0874 72.74 15.2039 71.2101 15.8595L67.2928 17.5384L62.536 18.5644L57.6858 18.8442L54.4215 18.5644C54.4215 18.5644 52.2 18.2496 50.7838 18.0048C49.1015 17.7139 48.1628 17.5226 46.4933 17.1653C44.4805 16.7345 41.3635 15.9528 41.3635 15.9528L37.0728 14.7403C35.3974 14.2667 34.5467 13.8728 32.8758 13.5277C31.1147 13.1641 30.1034 12.9379 28.3053 12.9681C26.7243 12.9947 25.8087 13.0711 24.2949 13.5277C22.8284 13.97 22.0298 14.3645 20.7505 15.2066C19.5426 16.0017 18.9355 16.5713 17.9523 17.6317C16.8526 18.8178 16.369 19.6082 15.5273 20.9895C14.5355 22.617 13.9965 23.5689 13.382 25.3732C12.5383 27.8504 12.5784 29.3879 12.3561 31.9955C12.0806 35.2256 12.176 37.0599 12.3561 40.2966C12.5495 43.7747 12.83 45.718 13.382 49.1573C14.0195 53.1286 14.5585 55.327 15.5273 59.2307C16.7433 64.1305 17.5644 66.8477 19.1649 71.6357C21.4873 78.5831 23.151 82.3574 26.0669 89.0775C28.2078 94.0111 28.9603 97.0399 31.8497 101.576C32.6096 102.769 32.9412 103.522 33.9017 104.56C34.5323 105.242 34.817 105.788 35.674 106.146C36.1881 106.361 36.5179 106.378 37.0728 106.426C37.5084 106.464 37.7692 106.536 38.1922 106.426C38.9415 106.23 39.6844 105.12 39.6844 105.12C39.6844 105.12 40.5756 103.571 40.9903 102.508C41.5109 101.175 41.5491 100.346 41.9231 98.9641C42.2786 97.6506 42.407 96.8913 42.8558 95.6064C43.197 94.6301 43.4379 94.0873 43.8485 93.163L43.8817 93.0882C44.2917 92.1651 45.001 90.7564 45.001 90.7564C45.001 90.7564 45.9519 89.2239 46.6799 88.3314C47.4126 87.4328 48.7319 86.1861 48.7319 86.1861C48.7319 86.1861 49.7776 85.287 50.504 84.7871C51.2707 84.2593 51.7163 83.9763 52.556 83.5746C53.3982 83.1714 53.9203 82.8808 54.7944 82.735L57.0331 82.3618C57.9072 82.2163 58.2902 82.2589 59.0849 82.3618C59.7158 82.4436 60.6706 82.735 60.6706 82.735L63.0024 87.9582C63.0024 87.9582 61.4017 87.824 60.3908 87.9582C59.7248 88.0466 59.3507 88.1238 58.7119 88.3314C57.8286 88.6181 57.349 88.8571 56.5667 89.3573C55.6312 89.9552 55.1596 90.3936 54.4215 91.2227C53.5277 92.2263 53.2346 92.9542 52.556 94.1141C51.9717 95.1128 51.6175 95.6642 51.1569 96.7257C50.5792 98.0572 50.0376 100.27 50.0376 100.27C50.0376 100.27 49.3649 102.636 49.1049 104.188C48.8809 105.524 48.9035 106.294 48.7319 107.638C48.5173 109.32 48.4913 110.285 48.079 111.929C47.7902 113.08 47.6072 113.727 47.1462 114.82C46.6651 115.961 46.3579 116.6 45.654 117.618C44.9058 118.701 44.4073 119.272 43.4153 120.137C42.547 120.894 42.0603 121.389 40.9903 121.816C40.028 122.199 39.4147 122.276 38.3787 122.282C37.3068 122.288 36.6939 122.145 35.674 121.816C34.5888 121.465 34.0073 121.148 33.0624 120.51C31.9515 119.76 31.4461 119.169 30.544 118.178C29.1703 116.669 28.6879 115.588 27.5592 113.888C25.2104 110.348 23.9631 108.308 21.9631 104.56C18.7292 98.5014 17.495 94.8109 14.9676 88.4246C13.3942 84.4487 11.1435 78.1648 11.1435 78.1648C11.1435 78.1648 9.51096 73.46 8.53194 70.4232C7.50314 67.2321 6.92765 65.4412 6.01362 62.2154C5.19231 59.3167 4.77252 57.6796 4.05492 54.7536L3.98798 54.4809C3.15777 51.0961 2.67145 49.1135 2.00294 45.613C1.45591 42.7486 1.1646 41.1367 0.790423 38.2446C0.377452 35.0526 0.152311 33.2536 0.0442541 30.0368C-0.0193357 28.1438 -0.00998201 27.08 0.0442541 25.1866C0.110095 22.8882 0.0656956 21.5829 0.417339 19.3106C0.610705 18.061 0.757548 17.3645 1.07024 16.1393C1.50607 14.4317 1.78909 13.4747 2.4693 11.8489C3.03516 10.4964 3.35159 9.72187 4.14819 8.4911C5.17219 6.90897 5.92153 6.11751 7.31942 4.85351C8.40011 3.87633 9.05018 3.35699 10.3041 2.61501C11.6091 1.84282 12.4142 1.52157 13.8484 1.0294C15.3024 0.530458 16.1455 0.272888 17.6725 0.0966885C19.0837 -0.0661423 19.8924 0.006736 21.3101 0.0966885C22.9244 0.199113 23.8297 0.330372 25.414 0.656316C27.1194 1.00717 28.0638 1.2863 29.7044 1.86884C31.4263 2.48012 32.3354 2.97 33.9949 3.73426C37.191 5.20617 38.8803 6.24226 42.0163 7.8382C44.8182 9.26416 46.2923 10.2758 49.1983 11.4758C51.4767 12.4167 52.7954 12.8573 55.1676 13.5277C56.4683 13.8954 57.1976 14.1138 58.5253 14.3672L58.5405 14.3701C59.5077 14.5547 60.0578 14.6597 61.0437 14.7403C62.278 14.8412 62.977 14.7783 64.2149 14.7403C65.4186 14.7033 66.0965 14.692 67.2928 14.5537C68.3934 14.4266 69.0063 14.3126 70.091 14.0874C71.3797 13.8198 72.0945 13.6254 73.3554 13.2479Z" fill="#0F2650"></path>
<path d="M53.2093 24.4404L49.8514 22.2952L54.515 23.7875C54.515 23.7875 57.125 24.1247 58.8054 24.2539C60.2963 24.3685 62.6295 24.4404 62.6295 24.4404C62.6295 24.4404 64.9642 23.8871 66.4536 23.5077C68.0977 23.0892 69.0474 22.9424 70.6509 22.3884C72.3778 21.7921 73.2953 21.3161 74.9414 20.5232C79.0498 18.544 84.9214 14.4605 84.9214 14.4605C87.6058 12.7514 88.9906 11.6026 91.7302 9.98348C93.8349 8.73962 94.9602 7.89881 97.2332 6.9988C98.5829 6.46444 99.3636 6.20758 100.778 5.87955C102.213 5.54658 103.036 5.37023 104.508 5.31991C105.932 5.27126 106.751 5.30763 108.146 5.59973C109.386 5.85949 110.073 6.09601 111.224 6.62571C112.098 7.02802 112.578 7.29006 113.369 7.83823C114.366 8.52922 114.911 8.9701 115.701 9.89021C116.333 10.6259 116.615 11.1023 117.1 11.9422C117.892 13.313 118.195 14.1677 118.686 15.673C119.115 16.9919 119.276 17.7596 119.525 19.1241C120.01 21.7817 119.952 23.3247 119.991 26.0261C120.058 30.5178 119.748 33.046 119.152 37.4984C118.512 42.2848 117.834 44.9232 116.727 49.6236C114.562 58.8203 112.716 63.8223 109.638 72.755C107.589 78.7043 106.355 82.0129 104.042 87.865C102.025 92.967 100.819 95.7982 98.6323 100.83C96.7216 105.225 95.6623 107.697 93.5957 112.022C92.6686 113.962 92.247 115.104 91.1707 116.965C90.7859 117.631 90.1446 118.644 90.1446 118.644C90.1446 118.644 88.8927 120.189 87.9061 120.976C86.9102 121.771 86.2867 122.17 85.108 122.655C84.0294 123.099 83.3733 123.254 82.2166 123.401C81.529 123.489 81.1367 123.525 80.4443 123.495C79.4452 123.451 78.8719 123.353 77.9261 123.028C77.0874 122.74 76.6486 122.473 75.8971 122.016L75.8741 122.002C74.7658 121.328 74.114 120.929 73.2625 119.95C72.4054 118.965 72.1464 118.237 71.5836 117.059C70.4709 114.729 70.4237 113.2 69.7182 110.716C68.4409 106.221 67.9343 103.642 66.6402 99.1507C65.8713 96.4821 65.4815 94.9714 64.5884 92.342C63.6353 89.5365 63.0869 87.9608 61.8834 85.2534C60.7387 82.6782 60.0631 81.2375 58.6189 78.8177C56.972 76.0577 55.9271 74.5647 53.862 72.1021C51.6444 69.4575 50.2763 68.048 47.6129 65.8529C46.0443 64.5603 45.1123 63.8943 43.4157 62.775C41.4132 61.4537 40.2151 60.8278 38.0993 59.697C35.6711 58.3993 34.2964 57.6822 31.7568 56.6191C30.1405 55.9425 29.2012 55.6458 27.5595 55.0334C25.3787 54.2199 21.9634 52.9816 21.9634 52.9816C21.9634 52.9816 26.0689 53.6555 28.6788 54.1941C32.5723 54.9974 34.7498 55.5042 38.5657 56.6191C41.0645 57.3492 44.9082 58.6711 44.9082 58.6711C44.9082 58.6711 48.6593 60.262 50.9707 61.4691C53.4459 62.762 54.8368 63.5085 57.1266 65.1068C59.5664 66.8099 60.9067 67.8448 63.0027 69.9568C64.2022 71.1657 64.8308 71.8911 65.8941 73.2214C67.2002 74.8554 67.8931 75.813 68.972 77.605C70.5101 80.1596 71.1143 81.7447 72.2366 84.5071C73.1385 86.7273 73.5621 88.0064 74.2884 90.29C75.5309 94.1963 76.1877 98.7285 76.8068 100.55C77.426 102.371 77.5868 103.392 78.2059 105.213C78.8251 107.035 78.9786 107.429 79.7916 108.571C80.1511 109.077 80.3819 109.366 80.9107 109.69C81.3929 109.986 81.8444 110.058 82.4032 109.97C83.0221 109.873 83.3317 109.638 83.8023 109.224C84.6994 108.435 85.083 107.783 85.7609 106.799C88.0733 103.443 88.2931 100.859 89.8648 97.0989C92.5844 90.5926 96.0207 80.1234 96.0207 80.1234C97.7526 75.1158 98.7805 72.3246 100.311 67.252C101.978 61.7283 102.852 58.6065 104.135 52.9816C104.814 50.0076 105.721 45.3332 105.721 45.3332C106.23 42.6808 106.647 41.2099 106.933 38.5245C107.154 36.4571 107.157 35.2864 107.213 33.208C107.274 30.9869 107.4 29.8502 107.213 27.5184C107.141 26.6203 106.911 26.1433 106.654 25.28C106.4 24.4301 106.388 24.0675 105.907 23.1348C105.63 22.5956 105.442 22.306 105.068 21.8289C104.48 21.0787 104.042 20.8029 103.296 20.15C102.655 19.5893 102.111 19.4819 101.285 19.3188L101.244 19.3106C100.386 19.1411 99.0054 19.3106 99.0054 19.3106C99.0054 19.3106 97.341 19.3776 96.3005 19.5904C95.1382 19.8282 94.508 20.076 93.4091 20.5232C91.9602 21.1125 91.2393 21.6419 89.8648 22.3884C88.6183 23.0658 87.9557 23.5129 86.6936 24.1607L86.6666 24.1745C85.4657 24.7908 84.7812 25.142 83.5223 25.653C82.049 26.2511 81.1785 26.5031 79.6696 26.9401L79.605 26.9588C77.8059 27.4798 76.789 27.7714 74.9414 28.078C73.7113 28.2821 71.7702 28.4511 71.7702 28.4511H68.6923L65.1479 28.2645C65.1479 28.2645 63.4239 28.1402 62.3498 27.8916C61.4182 27.676 60.018 27.1454 60.018 27.1454L56.567 26.0261C55.2193 25.589 53.2093 24.4404 53.2093 24.4404Z" fill="#44C6E9"></path>
</svg><style>@media (prefers-color-scheme: light) { :root { filter: none; } }
@media (prefers-color-scheme: dark) { :root { filter: none; } }
</style></svg>