<svg width="41" height="43" viewBox="0 0 41 43" fill="none" xmlns="http://www.w3.org/2000/svg">
<path d="M24.7855 5.30053C25.2785 5.153 26.0291 4.86526 26.0291 4.86526C26.0291 4.86526 25.5004 5.32953 25.1275 5.58035C25.1275 5.58035 24.5804 5.95253 24.0704 6.17108L22.7646 6.73071L21.179 7.07271L19.5623 7.16598L18.4741 7.07271C18.4741 7.07271 17.7337 6.96778 17.2616 6.88616C16.7008 6.78921 16.3879 6.72545 15.8314 6.60635C15.1604 6.46274 14.1214 6.20217 14.1214 6.20217L12.6912 5.79799C12.1327 5.64014 11.8491 5.50882 11.2922 5.39381C10.7052 5.2726 10.368 5.1972 9.76869 5.20727C9.24166 5.21612 8.93648 5.24158 8.43185 5.39381C7.94302 5.54124 7.67684 5.67274 7.2504 5.95344C6.84777 6.21846 6.64537 6.40833 6.31766 6.7618C5.95108 7.15719 5.78987 7.42064 5.5093 7.88109C5.1787 8.42359 4.99905 8.7409 4.79421 9.34232C4.51296 10.1681 4.52633 10.6806 4.45222 11.5498C4.3604 12.6265 4.39221 13.2379 4.45222 14.3168C4.5167 15.4762 4.61018 16.124 4.79421 17.2704C5.0067 18.5942 5.18636 19.327 5.5093 20.6283C5.91465 22.2615 6.18833 23.1673 6.72183 24.7633C7.49599 27.0791 8.05055 28.3372 9.02254 30.5773C9.73616 32.2218 9.98701 33.2314 10.9501 34.7434C11.2035 35.1411 11.314 35.3922 11.6342 35.7383C11.8443 35.9656 11.9393 36.1475 12.2249 36.2669C12.3963 36.3384 12.5062 36.3441 12.6912 36.3601C12.8364 36.3727 12.9233 36.3969 13.0643 36.3601C13.3141 36.2949 13.5618 35.9248 13.5618 35.9248C13.5618 35.9248 13.8588 35.4084 13.9971 35.0543C14.1706 34.6099 14.1833 34.3334 14.308 33.8728C14.4265 33.435 14.4693 33.1819 14.6189 32.7536C14.7326 32.4281 14.8129 32.2472 14.9498 31.9391L14.9609 31.9142C15.0975 31.6065 15.334 31.1369 15.334 31.1369C15.334 31.1369 15.6509 30.6261 15.8936 30.3286C16.1378 30.029 16.5776 29.6135 16.5776 29.6135C16.5776 29.6135 16.9262 29.3138 17.1683 29.1471C17.4239 28.9712 17.5724 28.8769 17.8523 28.7429C18.133 28.6085 18.3071 28.5117 18.5985 28.4631L19.3447 28.3387C19.6361 28.2902 19.7637 28.3044 20.0286 28.3387C20.2389 28.366 20.5572 28.4631 20.5572 28.4631L21.3345 30.2042C21.3345 30.2042 20.8009 30.1594 20.4639 30.2042C20.2419 30.2336 20.1172 30.2594 19.9043 30.3286C19.6099 30.4242 19.45 30.5038 19.1892 30.6705C18.8774 30.8699 18.7202 31.016 18.4741 31.2924C18.1762 31.6269 18.0785 31.8695 17.8523 32.2562C17.6575 32.5891 17.5395 32.7729 17.3859 33.1267C17.1934 33.5705 17.0128 34.3081 17.0128 34.3081C17.0128 34.3081 16.7886 35.097 16.7019 35.614C16.6273 36.0596 16.6348 36.3161 16.5776 36.7643C16.5061 37.3247 16.4974 37.6465 16.36 38.1945C16.2637 38.5781 16.2027 38.7939 16.049 39.1583C15.8887 39.5386 15.7863 39.7514 15.5516 40.091C15.3022 40.4518 15.136 40.6423 14.8054 40.9305C14.516 41.1827 14.3537 41.3478 13.9971 41.4901C13.6763 41.618 13.4718 41.6435 13.1265 41.6456C12.7692 41.6477 12.5649 41.6 12.2249 41.4901C11.8632 41.3732 11.6694 41.2675 11.3544 41.0548C10.9841 40.8048 10.8156 40.608 10.5149 40.2776C10.057 39.7744 9.89622 39.4142 9.51998 38.8474C8.73703 37.6676 8.32126 36.9875 7.65457 35.7383C6.5766 33.7186 6.16522 32.4884 5.32275 30.3596C4.79825 29.0343 4.04804 26.9397 4.04804 26.9397C4.04804 26.9397 3.50384 25.3714 3.1775 24.3591C2.83456 23.2954 2.64273 22.6984 2.33805 21.6232C2.06428 20.6569 1.92435 20.1112 1.68515 19.1359L1.66283 19.045C1.38609 17.9167 1.22399 17.2558 1.00115 16.089C0.818802 15.1342 0.7217 14.5969 0.596973 13.6328C0.459314 12.5688 0.384267 11.9691 0.348248 10.8969C0.327051 10.2659 0.330169 9.91128 0.348248 9.28012C0.370195 8.51398 0.355395 8.07888 0.47261 7.32143C0.537066 6.90491 0.586014 6.67273 0.690245 6.26435C0.835524 5.69513 0.929865 5.37612 1.1566 4.83417C1.34522 4.38335 1.4507 4.12517 1.71624 3.71491C2.05757 3.18753 2.30736 2.92371 2.77332 2.50237C3.13356 2.17664 3.35025 2.00353 3.76822 1.7562C4.20322 1.4988 4.47158 1.39172 4.94967 1.22766C5.43433 1.06134 5.71536 0.975485 6.22438 0.916751C6.69479 0.862474 6.96434 0.886767 7.43692 0.916751C7.97502 0.950893 8.2768 0.994646 8.80489 1.1033C9.37339 1.22025 9.68816 1.31329 10.2351 1.50747C10.809 1.71124 11.1121 1.87453 11.6652 2.12929C12.7306 2.61992 13.2937 2.96529 14.339 3.49728C15.273 3.9726 15.7644 4.30982 16.7331 4.70982C17.4925 5.02344 17.9321 5.17031 18.7229 5.39381C19.1564 5.51636 19.3995 5.58917 19.8421 5.67363L19.8472 5.67459C20.1695 5.73612 20.3529 5.77111 20.6816 5.79799C21.093 5.83164 21.326 5.81066 21.7386 5.79799C22.1399 5.78567 22.3659 5.78188 22.7646 5.73581C23.1315 5.69343 23.3358 5.65542 23.6974 5.58035C24.1269 5.49116 24.3652 5.42635 24.7855 5.30053Z" fill="#0F2650"/>
<path d="M18.0697 9.03142L16.9504 8.31634L18.5049 8.81377C18.5049 8.81377 19.3749 8.92616 19.9351 8.96923C20.4321 9.00742 21.2098 9.03142 21.2098 9.03142C21.2098 9.03142 21.988 8.84697 22.4845 8.72051C23.0325 8.58099 23.3491 8.53206 23.8836 8.3474C24.4592 8.14862 24.7651 7.98996 25.3138 7.72565C26.6833 7.06592 28.6405 5.70475 28.6405 5.70475C29.5353 5.13503 29.9969 4.75209 30.9101 4.21239C31.6117 3.79777 31.9868 3.5175 32.7444 3.21749C33.1943 3.03937 33.4546 2.95375 33.9259 2.8444C34.4043 2.73341 34.6787 2.67463 35.1695 2.65786C35.6442 2.64164 35.9172 2.65376 36.3821 2.75113C36.7954 2.83772 37.0244 2.91656 37.408 3.09313C37.6995 3.22723 37.8595 3.31458 38.1231 3.4973C38.4554 3.72763 38.637 3.8746 38.9004 4.1813C39.1111 4.42653 39.2051 4.58535 39.3668 4.86529C39.6308 5.32225 39.7319 5.60715 39.8953 6.10892C40.0385 6.54854 40.0921 6.80445 40.1751 7.25927C40.3369 8.14515 40.3173 8.65952 40.3306 9.55999C40.3526 11.0572 40.2493 11.9 40.0508 13.3841C39.8373 14.9796 39.6113 15.8591 39.2424 17.4259C38.5208 20.4915 37.9053 22.1588 36.8796 25.1364C36.1963 27.1195 35.785 28.2224 35.0141 30.1731C34.3419 31.8738 33.9398 32.8175 33.2108 34.4947C32.5739 35.96 32.2208 36.784 31.5319 38.2256C31.2229 38.8723 31.0824 39.2529 30.7236 39.8734C30.5953 40.0951 30.3815 40.433 30.3815 40.433C30.3815 40.433 29.9642 40.9478 29.6354 41.2103C29.3034 41.4753 29.0956 41.6084 28.7027 41.7699C28.3432 41.9177 28.1244 41.9694 27.7389 42.0186C27.5097 42.0479 27.3789 42.0599 27.1481 42.0497C26.8151 42.0351 26.6239 42.0027 26.3087 41.8943C26.0291 41.7982 25.8829 41.7092 25.6324 41.557L25.6247 41.5523C25.2552 41.3277 25.038 41.1945 24.7541 40.8683C24.4684 40.54 24.3821 40.2972 24.1945 39.9045C23.8236 39.1279 23.8079 38.6181 23.5727 37.7903C23.1469 36.2917 22.9781 35.4321 22.5467 33.935C22.2904 33.0455 22.1605 32.5419 21.8628 31.6655C21.545 30.7303 21.3623 30.205 20.9611 29.3026C20.5795 28.4442 20.3543 27.9639 19.8729 27.1573C19.3239 26.2373 18.9756 25.7396 18.2873 24.9188C17.5481 24.0372 17.092 23.5674 16.2042 22.8357C15.6813 22.4048 15.3707 22.1828 14.8051 21.8097C14.1376 21.3693 13.7383 21.1606 13.033 20.7837C12.2236 20.3511 11.7653 20.1121 10.9188 19.7577C10.38 19.5322 10.0669 19.4333 9.5197 19.2292C8.79275 18.958 7.6543 18.5452 7.6543 18.5452C7.6543 18.5452 9.0228 18.7699 9.8928 18.9494C11.1906 19.2172 11.9165 19.3861 13.1884 19.7577C14.0214 20.0011 15.3026 20.4417 15.3026 20.4417C15.3026 20.4417 16.553 20.972 17.3235 21.3744C18.1486 21.8054 18.6122 22.0542 19.3755 22.587C20.1887 23.1547 20.6355 23.4997 21.3342 24.2037C21.734 24.6066 21.9435 24.8484 22.298 25.2919C22.7334 25.8366 22.9643 26.1557 23.324 26.7531C23.8367 27.6046 24.0381 28.133 24.4122 29.0538C24.7128 29.7939 24.854 30.2202 25.0961 30.9815C25.5103 32.2836 25.7292 33.7943 25.9356 34.4014C26.142 35.0085 26.1956 35.3489 26.402 35.956C26.6083 36.5631 26.6595 36.6946 26.9305 37.0752C27.0504 37.2437 27.1273 37.3402 27.3036 37.4483C27.4643 37.5469 27.6148 37.5708 27.8011 37.5416C28.0074 37.5092 28.1106 37.4308 28.2674 37.2929C28.5665 37.0298 28.6943 36.8124 28.9203 36.4845C29.6911 35.3657 29.7644 34.5045 30.2883 33.2511C31.1948 31.0823 32.3403 27.5926 32.3403 27.5926C32.9176 25.9234 33.2602 24.993 33.7704 23.3021C34.3261 21.4608 34.6174 20.4202 35.0451 18.5452C35.2713 17.5539 35.5737 15.9957 35.5737 15.9957C35.7433 15.1116 35.8823 14.6213 35.9779 13.7262C36.0515 13.037 36.0523 12.6468 36.0711 11.9539C36.0913 11.2136 36.1333 10.8347 36.0711 10.0574C36.0472 9.75804 35.9706 9.59905 35.8846 9.31127C35.8 9.02796 35.796 8.9071 35.6359 8.59619C35.5434 8.41647 35.4808 8.31994 35.3561 8.16088C35.16 7.91084 35.0141 7.81891 34.7654 7.60126C34.5517 7.41434 34.3705 7.37856 34.0952 7.32419L34.0814 7.32146C33.7955 7.26496 33.3352 7.32146 33.3352 7.32146C33.3352 7.32146 32.7804 7.3438 32.4335 7.41473C32.0461 7.49399 31.836 7.57659 31.4697 7.72565C30.9868 7.9221 30.7465 8.09856 30.2883 8.3474C29.8728 8.57319 29.6519 8.72224 29.2312 8.93816L29.2222 8.94276C28.8219 9.14821 28.5937 9.26527 28.1741 9.43559C27.683 9.63498 27.3928 9.71897 26.8899 9.86463L26.8683 9.8709C26.2686 10.0445 25.9297 10.1417 25.3138 10.2439C24.9037 10.312 24.2567 10.3683 24.2567 10.3683H23.2307L22.0493 10.3061C22.0493 10.3061 21.4746 10.2647 21.1165 10.1818C20.806 10.1099 20.3393 9.93309 20.3393 9.93309L19.1889 9.55999C18.7397 9.41426 18.0697 9.03142 18.0697 9.03142Z" fill="#44C6E9"/>
</svg>
