<svg width="132" height="27" viewBox="0 0 132 27" fill="none" xmlns="http://www.w3.org/2000/svg">
<g clip-path="url(#clip0_1696_845)">
<path d="M7.388 9.65528H2.35261V18.1826H0V7.47192H9.74062V18.1826H7.388V9.65528Z" fill="#FF4A37"/>
<path d="M12.03 7.47178H14.3827V8.64583C14.8642 8.19268 15.3801 7.84253 15.9304 7.59536C16.4807 7.34819 17.0998 7.22461 17.7877 7.22461C18.5582 7.22461 19.2668 7.36879 19.9134 7.65715C20.5738 7.93178 21.1378 8.32313 21.6056 8.83121C22.0733 9.32554 22.4379 9.91603 22.6993 10.6026C22.9608 11.2754 23.0914 12.0101 23.0914 12.8065C23.0914 13.6304 22.947 14.3856 22.6581 15.0722C22.3829 15.745 22.0045 16.3287 21.523 16.823C21.0415 17.3036 20.4637 17.6812 19.7896 17.9559C19.1292 18.2305 18.4206 18.3678 17.6639 18.3678C16.9898 18.3678 16.3844 18.2648 15.8478 18.0588C15.3113 17.8528 14.8229 17.5645 14.3827 17.1938V22.3019H12.03V7.47178ZM17.3131 16.1845C17.7809 16.1845 18.2142 16.109 18.6132 15.9579C19.026 15.8069 19.3837 15.5872 19.6863 15.2988C19.989 14.9967 20.2229 14.6397 20.388 14.2277C20.5669 13.802 20.6563 13.3214 20.6563 12.7859C20.6563 12.2916 20.5806 11.8384 20.4293 11.4265C20.2779 11.0008 20.0578 10.6438 19.7689 10.3554C19.4937 10.0533 19.1635 9.81985 18.7783 9.65513C18.3931 9.49035 17.9666 9.40793 17.4988 9.40793C16.7834 9.40793 16.1505 9.57956 15.6002 9.92288C15.0636 10.2661 14.6578 10.6781 14.3827 11.1587V14.4131C14.6578 14.9899 15.0499 15.4292 15.5589 15.7313C16.068 16.0335 16.6527 16.1845 17.3131 16.1845Z" fill="#FF4A37"/>
<path d="M24.3145 12.8065C24.3145 11.9963 24.452 11.2548 24.7272 10.582C25.0024 9.89543 25.3945 9.30494 25.9035 8.81061C26.4126 8.31627 27.0179 7.93178 27.7196 7.65715C28.4213 7.36879 29.1986 7.22461 30.0515 7.22461C30.8908 7.22461 31.6612 7.36879 32.3629 7.65715C33.0783 7.93178 33.6905 8.31627 34.1996 8.81061C34.7086 9.30494 35.1007 9.89543 35.3759 10.582C35.6648 11.2548 35.8093 11.9963 35.8093 12.8065C35.8093 13.6167 35.6648 14.365 35.3759 15.0516C35.1007 15.7245 34.7086 16.308 34.1996 16.8024C33.6905 17.2967 33.0783 17.6812 32.3629 17.9559C31.6612 18.2305 30.8908 18.3678 30.0515 18.3678C29.2123 18.3678 28.4419 18.2305 27.7402 17.9559C27.0385 17.6812 26.4332 17.2967 25.9241 16.8024C25.4151 16.308 25.0161 15.7245 24.7272 15.0516C24.452 14.365 24.3145 13.6167 24.3145 12.8065ZM26.7496 12.8065C26.7496 13.2871 26.8253 13.7334 26.9767 14.1453C27.1418 14.5573 27.3687 14.9143 27.6577 15.2164C27.9466 15.5185 28.2905 15.7588 28.6895 15.9373C29.1022 16.1021 29.5563 16.1845 30.0515 16.1845C30.5468 16.1845 30.9939 16.109 31.3929 15.9579C31.8057 15.7931 32.1565 15.5666 32.4454 15.2782C32.7344 14.9761 32.9613 14.6191 33.1264 14.2072C33.2915 13.7952 33.3741 13.3283 33.3741 12.8065C33.3741 12.2847 33.2847 11.8178 33.1058 11.4059C32.9407 10.9802 32.7068 10.6232 32.4042 10.3348C32.1015 10.0327 31.7506 9.80616 31.3517 9.65513C30.9527 9.49035 30.5193 9.40793 30.0515 9.40793C29.5838 9.40793 29.1435 9.49035 28.7308 9.65513C28.3318 9.80616 27.981 10.0327 27.6783 10.3348C27.3894 10.6232 27.1624 10.9802 26.9973 11.4059C26.8322 11.8178 26.7496 12.2847 26.7496 12.8065Z" fill="#FF4A37"/>
<path d="M36.4366 15.9992H37.679C38.1622 15.3813 38.4866 14.6741 38.6523 13.8777C38.8179 13.0813 38.9007 12.1819 38.9007 11.1795V7.47192H47.556V15.9992H49.0676V20.6337H46.8727V18.1826H38.6315V20.6337H36.4366V15.9992ZM45.1955 15.9992V9.65528H41.137V12.3947C41.137 13.0538 41.0473 13.713 40.8678 14.372C40.6884 15.0175 40.4399 15.5599 40.1224 15.9992H45.1955Z" fill="#3981F1"/>
<path d="M49.5469 12.8065C49.5469 11.9963 49.6849 11.2548 49.961 10.582C50.237 9.89543 50.6305 9.30494 51.1412 8.81061C51.652 8.31627 52.2594 7.93178 52.9634 7.65715C53.6674 7.36879 54.4474 7.22461 55.3033 7.22461C56.1453 7.22461 56.9184 7.36879 57.6223 7.65715C58.3402 7.93178 58.9545 8.31627 59.4652 8.81061C59.976 9.30494 60.3694 9.89543 60.6455 10.582C60.9354 11.2548 61.0803 11.9963 61.0803 12.8065C61.0803 13.6167 60.9354 14.365 60.6455 15.0516C60.3694 15.7245 59.976 16.308 59.4652 16.8024C58.9545 17.2967 58.3402 17.6812 57.6223 17.9559C56.9184 18.2305 56.1453 18.3678 55.3033 18.3678C54.4612 18.3678 53.6881 18.2305 52.9841 17.9559C52.2801 17.6812 51.6727 17.2967 51.162 16.8024C50.6512 16.308 50.2509 15.7245 49.961 15.0516C49.6849 14.365 49.5469 13.6167 49.5469 12.8065ZM51.9902 12.8065C51.9902 13.2871 52.0661 13.7334 52.2179 14.1453C52.3836 14.5573 52.6114 14.9143 52.9013 15.2164C53.1912 15.5185 53.5363 15.7588 53.9366 15.9373C54.3508 16.1021 54.8063 16.1845 55.3033 16.1845C55.8002 16.1845 56.2488 16.109 56.6492 15.9579C57.0633 15.7931 57.4153 15.5666 57.7052 15.2782C57.9951 14.9761 58.2228 14.6191 58.3885 14.2072C58.5541 13.7952 58.637 13.3283 58.637 12.8065C58.637 12.2847 58.5473 11.8178 58.3678 11.4059C58.2021 10.9802 57.9675 10.6232 57.6637 10.3348C57.3601 10.0327 57.0081 9.80616 56.6078 9.65513C56.2074 9.49035 55.7726 9.40793 55.3033 9.40793C54.8339 9.40793 54.3921 9.49035 53.978 9.65513C53.5777 9.80616 53.2257 10.0327 52.922 10.3348C52.6321 10.6232 52.4043 10.9802 52.2387 11.4059C52.073 11.8178 51.9902 12.2847 51.9902 12.8065Z" fill="#3981F1"/>
<path d="M62.541 7.47192H64.9015V11.818L69.5604 7.47192H72.6456L67.4068 12.3123L72.8321 18.1826H69.8092L65.6887 13.7747L64.9015 14.5368V18.1826H62.541V7.47192Z" fill="#3981F1"/>
<path d="M73.578 7.47192H83.7244V9.65528H79.8313V18.1826H77.4711V9.65528H73.578V7.47192Z" fill="#3981F1"/>
<path d="M84.2383 12.8065C84.2383 11.9963 84.3765 11.2548 84.6529 10.582C84.9287 9.89543 85.322 9.30494 85.8327 8.81061C86.3435 8.31627 86.9509 7.93178 87.6552 7.65715C88.3588 7.36879 89.139 7.22461 89.9947 7.22461C90.8371 7.22461 91.6098 7.36879 92.3141 7.65715C93.0321 7.93178 93.6459 8.31627 94.1566 8.81061C94.6674 9.30494 95.0613 9.89543 95.3371 10.582C95.6273 11.2548 95.7718 11.9963 95.7718 12.8065C95.7718 13.6167 95.6273 14.365 95.3371 15.0516C95.0613 15.7245 94.6674 16.308 94.1566 16.8024C93.6459 17.2967 93.0321 17.6812 92.3141 17.9559C91.6098 18.2305 90.8371 18.3678 89.9947 18.3678C89.1529 18.3678 88.3795 18.2305 87.6759 17.9559C86.9717 17.6812 86.3642 17.2967 85.8534 16.8024C85.3427 16.308 84.9425 15.7245 84.6529 15.0516C84.3765 14.365 84.2383 13.6167 84.2383 12.8065ZM86.6821 12.8065C86.6821 13.2871 86.7581 13.7334 86.9095 14.1453C87.0753 14.5573 87.3027 14.9143 87.593 15.2164C87.8826 15.5185 88.2281 15.7588 88.6283 15.9373C89.0423 16.1021 89.4977 16.1845 89.9947 16.1845C90.4916 16.1845 90.9408 16.109 91.3409 15.9579C91.7549 15.7931 92.1067 15.5666 92.397 15.2782C92.6866 14.9761 92.9146 14.6191 93.0799 14.2072C93.2457 13.7952 93.3286 13.3283 93.3286 12.8065C93.3286 12.2847 93.2388 11.8178 93.0591 11.4059C92.8939 10.9802 92.6589 10.6232 92.3555 10.3348C92.0515 10.0327 91.6997 9.80616 91.2995 9.65513C90.8993 9.49035 90.464 9.40793 89.9947 9.40793C89.5254 9.40793 89.0837 9.49035 88.6697 9.65513C88.2696 9.80616 87.9171 10.0327 87.6137 10.3348C87.3235 10.6232 87.0961 10.9802 86.9302 11.4059C86.765 11.8178 86.6821 12.2847 86.6821 12.8065Z" fill="#3981F1"/>
<path d="M97.2148 7.47178H99.5751V8.64583C100.058 8.19268 100.576 7.84253 101.128 7.59536C101.68 7.34819 102.302 7.22461 102.992 7.22461C103.765 7.22461 104.476 7.36879 105.125 7.65715C105.787 7.93178 106.353 8.32313 106.822 8.83121C107.291 9.32554 107.658 9.91603 107.92 10.6026C108.182 11.2754 108.313 12.0101 108.313 12.8065C108.313 13.6304 108.168 14.3856 107.878 15.0722C107.602 15.745 107.223 16.3287 106.739 16.823C106.256 17.3036 105.676 17.6812 105 17.9559C104.338 18.2305 103.626 18.3678 102.868 18.3678C102.191 18.3678 101.583 18.2648 101.045 18.0588C100.507 17.8528 100.017 17.5645 99.5751 17.1938V22.3019H97.2148V7.47178ZM102.516 16.1845C102.985 16.1845 103.42 16.109 103.82 15.9579C104.234 15.8069 104.593 15.5872 104.897 15.2988C105.2 14.9967 105.435 14.6397 105.601 14.2277C105.78 13.802 105.87 13.3214 105.87 12.7859C105.87 12.2916 105.794 11.8384 105.642 11.4265C105.49 11.0008 105.269 10.6438 104.98 10.3554C104.703 10.0533 104.372 9.81985 103.986 9.65513C103.599 9.49035 103.171 9.40793 102.702 9.40793C101.984 9.40793 101.349 9.57956 100.797 9.92288C100.259 10.2661 99.8515 10.6781 99.5751 11.1587V14.4131C99.8515 14.9899 100.245 15.4292 100.755 15.7313C101.266 16.0335 101.853 16.1845 102.516 16.1845Z" fill="#3981F1"/>
<path d="M109.484 12.8065C109.484 11.9963 109.623 11.2548 109.898 10.582C110.175 9.89543 110.568 9.30494 111.079 8.81061C111.59 8.31627 112.197 7.93178 112.901 7.65715C113.605 7.36879 114.385 7.22461 115.241 7.22461C116.083 7.22461 116.856 7.36879 117.56 7.65715C118.278 7.93178 118.892 8.31627 119.403 8.81061C119.913 9.30494 120.307 9.89543 120.583 10.582C120.873 11.2548 121.018 11.9963 121.018 12.8065C121.018 13.6167 120.873 14.365 120.583 15.0516C120.307 15.7245 119.913 16.308 119.403 16.8024C118.892 17.2967 118.278 17.6812 117.56 17.9559C116.856 18.2305 116.083 18.3678 115.241 18.3678C114.399 18.3678 113.626 18.2305 112.921 17.9559C112.218 17.6812 111.61 17.2967 111.1 16.8024C110.589 16.308 110.189 15.7245 109.898 15.0516C109.623 14.365 109.484 13.6167 109.484 12.8065ZM111.928 12.8065C111.928 13.2871 112.004 13.7334 112.156 14.1453C112.321 14.5573 112.549 14.9143 112.839 15.2164C113.129 15.5185 113.474 15.7588 113.874 15.9373C114.288 16.1021 114.744 16.1845 115.241 16.1845C115.738 16.1845 116.186 16.109 116.586 15.9579C117.001 15.7931 117.353 15.5666 117.642 15.2782C117.933 14.9761 118.16 14.6191 118.326 14.2072C118.492 13.7952 118.575 13.3283 118.575 12.8065C118.575 12.2847 118.485 11.8178 118.305 11.4059C118.139 10.9802 117.905 10.6232 117.601 10.3348C117.298 10.0327 116.946 9.80616 116.545 9.65513C116.145 9.49035 115.71 9.40793 115.241 9.40793C114.771 9.40793 114.33 9.49035 113.916 9.65513C113.515 9.80616 113.163 10.0327 112.86 10.3348C112.57 10.6232 112.342 10.9802 112.176 11.4059C112.01 11.8178 111.928 12.2847 111.928 12.8065Z" fill="#3981F1"/>
<path d="M122.484 7.47192H127.081C128.586 7.47192 129.718 7.68477 130.477 8.11045C131.236 8.53612 131.616 9.27076 131.616 10.3143C131.616 10.8087 131.505 11.2275 131.284 11.5708C131.064 11.9141 130.774 12.2231 130.415 12.4977C130.926 12.69 131.305 13.0126 131.554 13.4657C131.802 13.9052 131.926 14.4132 131.926 14.99C131.926 16.0611 131.547 16.8644 130.787 17.3999C130.029 17.9217 128.959 18.1826 127.578 18.1826H122.484V7.47192ZM124.845 13.7541V16.0611H127.35C128.054 16.0611 128.586 15.9718 128.945 15.7932C129.304 15.6148 129.483 15.3264 129.483 14.9282C129.483 14.5025 129.31 14.2004 128.966 14.0219C128.634 13.8434 128.116 13.7541 127.413 13.7541H124.845ZM124.845 9.59346V11.715H127.619C128.102 11.715 128.483 11.6258 128.758 11.4472C129.035 11.2687 129.172 10.9941 129.172 10.6233C129.172 10.1839 128.986 9.90242 128.613 9.77885C128.254 9.65528 127.723 9.59346 127.019 9.59346H124.845Z" fill="#3981F1"/>
</g>
<defs>
<clipPath id="clip0_1696_845">
<rect width="131.926" height="26.3853" fill="white"/>
</clipPath>
</defs>
</svg>
