<svg width="590" height="522" viewBox="0 0 590 522" fill="none" xmlns="http://www.w3.org/2000/svg">
<g opacity="0.3">
<ellipse cx="495.819" cy="120.146" rx="93.7282" ry="91.7396" transform="rotate(-180 495.819 120.146)" fill="url(#paint0_linear_97_3293)"/>
<ellipse cx="258.687" cy="283.443" rx="46.8641" ry="45.8698" transform="rotate(-180 258.687 283.443)" fill="url(#paint1_linear_97_3293)"/>
<ellipse cx="143.401" cy="120.147" rx="46.8641" ry="45.8698" transform="rotate(-180 143.401 120.147)" fill="url(#paint2_linear_97_3293)"/>
<ellipse cx="96.5383" cy="407.291" rx="46.8641" ry="45.8698" transform="rotate(-180 96.5383 407.291)" fill="url(#paint3_linear_97_3293)"/>
<ellipse cx="328.985" cy="188.951" rx="23.432" ry="22.9349" transform="rotate(-180 328.985 188.951)" fill="url(#paint4_linear_97_3293)"/>
<ellipse cx="493.942" cy="315.551" rx="23.432" ry="22.9349" transform="rotate(-180 493.942 315.551)" fill="url(#paint5_linear_97_3293)"/>
<ellipse cx="343.039" cy="453.161" rx="23.432" ry="22.9349" transform="rotate(-180 343.039 453.161)" fill="url(#paint6_linear_97_3293)"/>
<ellipse cx="197.764" cy="499.031" rx="23.432" ry="22.9349" transform="rotate(-180 197.764 499.031)" fill="url(#paint7_linear_97_3293)"/>
<ellipse cx="148.081" cy="315.551" rx="23.432" ry="22.9349" transform="rotate(-180 148.081 315.551)" fill="url(#paint8_linear_97_3293)"/>
<ellipse cx="23.4327" cy="175.19" rx="23.432" ry="22.9349" transform="rotate(-180 23.4327 175.19)" fill="url(#paint9_linear_97_3293)"/>
<ellipse cx="26.2447" cy="306.378" rx="23.432" ry="22.9349" transform="rotate(-180 26.2447 306.378)" fill="url(#paint10_linear_97_3293)"/>
<ellipse cx="343.039" cy="361.422" rx="23.432" ry="22.9349" transform="rotate(-180 343.039 361.422)" fill="url(#paint11_linear_97_3293)"/>
<ellipse cx="258.687" cy="99.0466" rx="23.432" ry="22.9349" transform="rotate(-180 258.687 99.0466)" fill="url(#paint12_linear_97_3293)"/>
<ellipse cx="244.625" cy="198.125" rx="14.0592" ry="13.7609" transform="rotate(-180 244.625 198.125)" fill="url(#paint13_linear_97_3293)"/>
<ellipse cx="110.595" cy="211.887" rx="14.0592" ry="13.7609" transform="rotate(-180 110.595 211.887)" fill="url(#paint14_linear_97_3293)"/>
<ellipse cx="235.259" cy="407.292" rx="14.0592" ry="13.7609" transform="rotate(-180 235.259 407.292)" fill="url(#paint15_linear_97_3293)"/>
<ellipse cx="225.881" cy="14.6463" rx="14.0592" ry="13.7609" transform="rotate(-180 225.881 14.6463)" fill="url(#paint16_linear_97_3293)"/>
<ellipse cx="426.459" cy="251.335" rx="14.0592" ry="13.7609" transform="rotate(-180 426.459 251.335)" fill="url(#paint17_linear_97_3293)"/>
<ellipse cx="545.495" cy="251.335" rx="14.0592" ry="13.7609" transform="rotate(-180 545.495 251.335)" fill="url(#paint18_linear_97_3293)"/>
<ellipse cx="343.041" cy="62.3504" rx="14.0592" ry="13.7609" transform="rotate(-180 343.041 62.3504)" fill="url(#paint19_linear_97_3293)"/>
<ellipse cx="388.029" cy="315.552" rx="14.0592" ry="13.7609" transform="rotate(-180 388.029 315.552)" fill="url(#paint20_linear_97_3293)"/>
</g>
<defs>
<linearGradient id="paint0_linear_97_3293" x1="495.819" y1="28.4066" x2="495.819" y2="211.886" gradientUnits="userSpaceOnUse">
<stop stop-color="#44C6E9" stop-opacity="0.5"/>
<stop offset="1" stop-color="#D4E4F4" stop-opacity="0.3"/>
</linearGradient>
<linearGradient id="paint1_linear_97_3293" x1="258.687" y1="237.573" x2="258.687" y2="329.313" gradientUnits="userSpaceOnUse">
<stop stop-color="#44C6E9" stop-opacity="0.5"/>
<stop offset="1" stop-color="#D4E4F4" stop-opacity="0.3"/>
</linearGradient>
<linearGradient id="paint2_linear_97_3293" x1="143.401" y1="74.277" x2="143.401" y2="166.017" gradientUnits="userSpaceOnUse">
<stop stop-color="#44C6E9" stop-opacity="0.5"/>
<stop offset="1" stop-color="#D4E4F4" stop-opacity="0.3"/>
</linearGradient>
<linearGradient id="paint3_linear_97_3293" x1="96.5383" y1="361.422" x2="96.5383" y2="453.161" gradientUnits="userSpaceOnUse">
<stop stop-color="#44C6E9" stop-opacity="0.5"/>
<stop offset="1" stop-color="#D4E4F4" stop-opacity="0.3"/>
</linearGradient>
<linearGradient id="paint4_linear_97_3293" x1="328.985" y1="166.016" x2="328.985" y2="211.886" gradientUnits="userSpaceOnUse">
<stop stop-color="#44C6E9" stop-opacity="0.5"/>
<stop offset="1" stop-color="#D4E4F4" stop-opacity="0.3"/>
</linearGradient>
<linearGradient id="paint5_linear_97_3293" x1="493.942" y1="292.617" x2="493.942" y2="338.486" gradientUnits="userSpaceOnUse">
<stop stop-color="#44C6E9" stop-opacity="0.5"/>
<stop offset="1" stop-color="#D4E4F4" stop-opacity="0.3"/>
</linearGradient>
<linearGradient id="paint6_linear_97_3293" x1="343.039" y1="430.226" x2="343.039" y2="476.096" gradientUnits="userSpaceOnUse">
<stop stop-color="#44C6E9" stop-opacity="0.5"/>
<stop offset="1" stop-color="#D4E4F4" stop-opacity="0.3"/>
</linearGradient>
<linearGradient id="paint7_linear_97_3293" x1="197.764" y1="476.096" x2="197.764" y2="521.966" gradientUnits="userSpaceOnUse">
<stop stop-color="#44C6E9" stop-opacity="0.5"/>
<stop offset="1" stop-color="#D4E4F4" stop-opacity="0.3"/>
</linearGradient>
<linearGradient id="paint8_linear_97_3293" x1="148.081" y1="292.617" x2="148.081" y2="338.486" gradientUnits="userSpaceOnUse">
<stop stop-color="#44C6E9" stop-opacity="0.5"/>
<stop offset="1" stop-color="#D4E4F4" stop-opacity="0.3"/>
</linearGradient>
<linearGradient id="paint9_linear_97_3293" x1="23.4327" y1="152.255" x2="23.4327" y2="198.125" gradientUnits="userSpaceOnUse">
<stop stop-color="#44C6E9" stop-opacity="0.5"/>
<stop offset="1" stop-color="#D4E4F4" stop-opacity="0.3"/>
</linearGradient>
<linearGradient id="paint10_linear_97_3293" x1="26.2447" y1="283.443" x2="26.2447" y2="329.312" gradientUnits="userSpaceOnUse">
<stop stop-color="#44C6E9" stop-opacity="0.5"/>
<stop offset="1" stop-color="#D4E4F4" stop-opacity="0.3"/>
</linearGradient>
<linearGradient id="paint11_linear_97_3293" x1="343.039" y1="338.487" x2="343.039" y2="384.356" gradientUnits="userSpaceOnUse">
<stop stop-color="#44C6E9" stop-opacity="0.5"/>
<stop offset="1" stop-color="#D4E4F4" stop-opacity="0.3"/>
</linearGradient>
<linearGradient id="paint12_linear_97_3293" x1="258.687" y1="76.1117" x2="258.687" y2="121.981" gradientUnits="userSpaceOnUse">
<stop stop-color="#44C6E9" stop-opacity="0.5"/>
<stop offset="1" stop-color="#D4E4F4" stop-opacity="0.3"/>
</linearGradient>
<linearGradient id="paint13_linear_97_3293" x1="244.625" y1="184.364" x2="244.625" y2="211.886" gradientUnits="userSpaceOnUse">
<stop stop-color="#44C6E9" stop-opacity="0.5"/>
<stop offset="1" stop-color="#D4E4F4" stop-opacity="0.3"/>
</linearGradient>
<linearGradient id="paint14_linear_97_3293" x1="110.595" y1="198.126" x2="110.595" y2="225.647" gradientUnits="userSpaceOnUse">
<stop stop-color="#44C6E9" stop-opacity="0.5"/>
<stop offset="1" stop-color="#D4E4F4" stop-opacity="0.3"/>
</linearGradient>
<linearGradient id="paint15_linear_97_3293" x1="235.259" y1="393.531" x2="235.259" y2="421.053" gradientUnits="userSpaceOnUse">
<stop stop-color="#44C6E9" stop-opacity="0.5"/>
<stop offset="1" stop-color="#D4E4F4" stop-opacity="0.3"/>
</linearGradient>
<linearGradient id="paint16_linear_97_3293" x1="225.881" y1="0.885351" x2="225.881" y2="28.4072" gradientUnits="userSpaceOnUse">
<stop stop-color="#44C6E9" stop-opacity="0.5"/>
<stop offset="1" stop-color="#D4E4F4" stop-opacity="0.3"/>
</linearGradient>
<linearGradient id="paint17_linear_97_3293" x1="426.459" y1="237.574" x2="426.459" y2="265.096" gradientUnits="userSpaceOnUse">
<stop stop-color="#44C6E9" stop-opacity="0.5"/>
<stop offset="1" stop-color="#D4E4F4" stop-opacity="0.3"/>
</linearGradient>
<linearGradient id="paint18_linear_97_3293" x1="545.495" y1="237.574" x2="545.495" y2="265.096" gradientUnits="userSpaceOnUse">
<stop stop-color="#44C6E9" stop-opacity="0.5"/>
<stop offset="1" stop-color="#D4E4F4" stop-opacity="0.3"/>
</linearGradient>
<linearGradient id="paint19_linear_97_3293" x1="343.041" y1="48.5895" x2="343.041" y2="76.1113" gradientUnits="userSpaceOnUse">
<stop stop-color="#44C6E9" stop-opacity="0.5"/>
<stop offset="1" stop-color="#D4E4F4" stop-opacity="0.3"/>
</linearGradient>
<linearGradient id="paint20_linear_97_3293" x1="388.029" y1="301.791" x2="388.029" y2="329.313" gradientUnits="userSpaceOnUse">
<stop stop-color="#44C6E9" stop-opacity="0.5"/>
<stop offset="1" stop-color="#D4E4F4" stop-opacity="0.3"/>
</linearGradient>
</defs>
</svg>
