<svg width="272" height="61" viewBox="0 0 272 61" fill="none" xmlns="http://www.w3.org/2000/svg">
<g clip-path="url(#clip0_97_3401)">
<path d="M35.6122 7.31631C36.3302 7.10145 37.4235 6.68238 37.4235 6.68238C37.4235 6.68238 36.6535 7.35854 36.1104 7.72384C36.1104 7.72384 35.3135 8.26588 34.5708 8.58418L32.669 9.39923L30.3597 9.89733L28.005 10.0332L26.4203 9.89733C26.4203 9.89733 25.3418 9.7445 24.6543 9.62564C23.8376 9.48445 23.3818 9.39158 22.5714 9.21812C21.5942 9.00896 20.081 8.62947 20.081 8.62947L17.998 8.0408C17.1846 7.81092 16.7716 7.61966 15.9604 7.45215C15.1054 7.27562 14.6145 7.1658 13.7416 7.18047C12.974 7.19337 12.5295 7.23045 11.7946 7.45215C11.0826 7.66688 10.695 7.8584 10.0739 8.26721C9.48748 8.65319 9.1927 8.92972 8.71542 9.44451C8.18153 10.0204 7.94675 10.4041 7.53812 11.0747C7.05662 11.8648 6.79498 12.3269 6.49665 13.2028C6.08704 14.4054 6.1065 15.1519 5.99856 16.4178C5.86484 17.9859 5.91117 18.8764 5.99856 20.4478C6.09249 22.1363 6.22863 23.0797 6.49665 24.7494C6.80612 26.6774 7.06779 27.7447 7.53812 29.6398C8.12847 32.0186 8.52707 33.3377 9.30407 35.6621C10.4316 39.035 11.2392 40.8673 12.6549 44.1297C13.6942 46.5249 14.0595 47.9953 15.4622 50.1973C15.8312 50.7765 15.9921 51.1422 16.4584 51.6463C16.7646 51.9773 16.9028 52.2423 17.3188 52.4161C17.5684 52.5203 17.7285 52.5286 17.998 52.552C18.2094 52.5703 18.336 52.6055 18.5414 52.552C18.9051 52.457 19.2658 51.918 19.2658 51.918C19.2658 51.918 19.6984 51.1658 19.8998 50.6501C20.1525 50.0029 20.1711 49.6002 20.3526 48.9294C20.5252 48.2918 20.5876 47.9231 20.8054 47.2993C20.9711 46.8254 21.0881 46.5619 21.2874 46.1131L21.3035 46.0768C21.5025 45.6287 21.8469 44.9448 21.8469 44.9448C21.8469 44.9448 22.3085 44.2008 22.6619 43.7675C23.0177 43.3313 23.6582 42.726 23.6582 42.726C23.6582 42.726 24.1658 42.2895 24.5184 42.0468C24.8907 41.7906 25.107 41.6532 25.5147 41.4582C25.9235 41.2624 26.177 41.1214 26.6014 41.0506L27.6882 40.8694C28.1125 40.7987 28.2984 40.8194 28.6843 40.8694C28.9906 40.9091 29.4541 41.0506 29.4541 41.0506L30.5861 43.5863C30.5861 43.5863 29.809 43.5212 29.3183 43.5863C28.995 43.6292 28.8133 43.6667 28.5032 43.7675C28.0744 43.9067 27.8416 44.0227 27.4617 44.2655C27.0076 44.5558 26.7786 44.7687 26.4203 45.1712C25.9864 45.6584 25.8441 46.0118 25.5147 46.5749C25.231 47.0597 25.059 47.3274 24.8354 47.8427C24.555 48.4891 24.292 49.5634 24.292 49.5634C24.292 49.5634 23.9654 50.7122 23.8392 51.4653C23.7305 52.1143 23.7415 52.4878 23.6582 53.1406C23.554 53.9568 23.5414 54.4254 23.3412 55.2235C23.201 55.7822 23.1121 56.0965 22.8884 56.6272C22.6548 57.1812 22.5056 57.4911 22.1639 57.9856C21.8007 58.5112 21.5586 58.7886 21.0771 59.2083C20.6555 59.5756 20.4192 59.8161 19.8998 60.0233C19.4326 60.2096 19.1349 60.2467 18.6319 60.2497C18.1116 60.2528 17.814 60.1833 17.3188 60.0233C16.792 59.853 16.5097 59.6991 16.051 59.3893C15.5117 59.0253 15.2663 58.7386 14.8284 58.2574C14.1615 57.5245 13.9273 57 13.3793 56.1744C12.239 54.4562 11.6335 53.4656 10.6625 51.6463C9.09255 48.7048 8.49341 46.9131 7.26643 43.8127C6.50253 41.8825 5.40991 38.8319 5.40991 38.8319C5.40991 38.8319 4.61734 36.5478 4.14205 35.0735C3.64259 33.5243 3.3632 32.6549 2.91947 31.0888C2.52074 29.6816 2.31694 28.8868 1.96856 27.4663L1.93607 27.3339C1.53302 25.6907 1.29692 24.7282 0.972379 23.0287C0.706807 21.6382 0.565386 20.8556 0.383731 19.4516C0.183244 17.902 0.0739433 17.0286 0.0214843 15.4669C-0.00938699 14.5479 -0.00484602 14.0315 0.0214843 13.1122C0.0534486 11.9964 0.0318936 11.3627 0.202608 10.2596C0.296483 9.65295 0.367771 9.3148 0.519574 8.72002C0.731161 7.89101 0.86856 7.42639 1.19879 6.6371C1.4735 5.98051 1.62712 5.60449 2.01384 5.00699C2.51097 4.2389 2.87476 3.85467 3.5534 3.24103C4.07805 2.76663 4.39364 2.5145 5.00239 2.15429C5.63592 1.77941 6.02677 1.62345 6.72306 1.38451C7.42892 1.14229 7.83822 1.01725 8.57957 0.931706C9.26468 0.852655 9.65726 0.888036 10.3455 0.931706C11.1292 0.98143 11.5687 1.04515 12.3379 1.20339C13.1658 1.37372 13.6243 1.50923 14.4208 1.79204C15.2567 2.0888 15.6981 2.32663 16.5037 2.69766C18.0553 3.41223 18.8754 3.91523 20.3979 4.69002C21.7582 5.38229 22.4738 5.87342 23.8846 6.45598C24.9907 6.91275 25.6309 7.12665 26.7825 7.45215C27.414 7.63064 27.7681 7.73668 28.4126 7.85969L28.42 7.8611C28.8895 7.9507 29.1566 8.00167 29.6352 8.0408C30.2345 8.08981 30.5738 8.05926 31.1748 8.0408C31.7591 8.02287 32.0883 8.01735 32.669 7.95025C33.2033 7.88852 33.5009 7.83316 34.0275 7.72384C34.6531 7.59394 35.0001 7.49954 35.6122 7.31631Z" fill="#0F2650"/>
<path d="M25.8317 12.7503L24.2015 11.7088L26.4656 12.4333C26.4656 12.4333 27.7327 12.597 28.5485 12.6597C29.2723 12.7153 30.405 12.7503 30.405 12.7503C30.405 12.7503 31.5384 12.4816 32.2615 12.2975C33.0597 12.0943 33.5208 12.023 34.2992 11.7541C35.1376 11.4645 35.583 11.2335 36.3821 10.8485C38.3767 9.88769 41.2272 7.90526 41.2272 7.90526C42.5304 7.07552 43.2027 6.51779 44.5327 5.73177C45.5544 5.12791 46.1008 4.71971 47.2043 4.28278C47.8595 4.02337 48.2385 3.89867 48.9249 3.73941C49.6217 3.57776 50.0213 3.49215 50.7362 3.46772C51.4275 3.4441 51.8251 3.46176 52.5021 3.60357C53.1042 3.72968 53.4376 3.8445 53.9964 4.10166C54.4208 4.29697 54.6539 4.42418 55.0378 4.69031C55.5218 5.02576 55.7862 5.2398 56.1699 5.68649C56.4767 6.04365 56.6136 6.27495 56.8491 6.68267C57.2336 7.34818 57.3809 7.76312 57.6189 8.49391C57.8274 9.13417 57.9054 9.50689 58.0264 10.1693C58.262 11.4595 58.2335 12.2086 58.2528 13.5201C58.2849 15.7007 58.1344 16.928 57.8453 19.0896C57.5344 21.4133 57.2052 22.6942 56.6679 24.9761C55.617 29.4409 54.7207 31.8692 53.2267 36.2058C52.2315 39.0941 51.6326 40.7003 50.5098 43.5413C49.5308 46.0182 48.9451 47.3927 47.8835 49.8353C46.9559 51.9694 46.4416 53.1695 45.4383 55.2691C44.9882 56.211 44.7836 56.7652 44.261 57.6689C44.0742 57.9919 43.7629 58.484 43.7629 58.484C43.7629 58.484 43.1551 59.2337 42.6762 59.616C42.1927 60.002 41.89 60.1958 41.3177 60.4311C40.7942 60.6464 40.4756 60.7216 39.9141 60.7933C39.5803 60.836 39.3898 60.8534 39.0537 60.8386C38.5686 60.8174 38.2903 60.7701 37.8311 60.6122C37.424 60.4722 37.2109 60.3427 36.8461 60.121L36.8349 60.1142C36.2969 59.787 35.9805 59.593 35.5671 59.118C35.1509 58.6398 35.0252 58.2862 34.752 57.7143C34.2118 56.5833 34.1889 55.8408 33.8464 54.6351C33.2263 52.4525 32.9804 51.2007 32.3521 49.0203C31.9788 47.7247 31.7896 46.9913 31.356 45.7148C30.8933 44.3528 30.6271 43.5878 30.0428 42.2735C29.4871 41.0233 29.1591 40.3239 28.4579 39.1491C27.6584 37.8092 27.1511 37.0844 26.1486 35.8888C25.072 34.6049 24.4078 33.9207 23.1148 32.855C22.3533 32.2275 21.9009 31.9042 21.0772 31.3608C20.105 30.7193 19.5234 30.4154 18.4962 29.8665C17.3174 29.2365 16.65 28.8883 15.4171 28.3722C14.6324 28.0438 14.1764 27.8997 13.3794 27.6024C12.3207 27.2075 10.6626 26.6063 10.6626 26.6063C10.6626 26.6063 12.6557 26.9335 13.9228 27.1949C15.813 27.5849 16.8701 27.831 18.7226 28.3722C19.9357 28.7267 21.8017 29.3684 21.8017 29.3684C21.8017 29.3684 23.6228 30.1408 24.7449 30.7268C25.9466 31.3545 26.6218 31.7169 27.7335 32.4928C28.9179 33.3196 29.5686 33.822 30.5862 34.8474C31.1685 35.4343 31.4737 35.7864 31.9899 36.4322C32.624 37.2255 32.9604 37.6904 33.4841 38.5604C34.2309 39.8006 34.5242 40.5701 35.069 41.9111C35.5069 42.989 35.7125 43.61 36.0651 44.7186C36.6683 46.615 36.9872 48.8153 37.2877 49.6995C37.5883 50.5837 37.6664 51.0794 37.967 51.9636C38.2675 52.8478 38.3421 53.0393 38.7368 53.5937C38.9113 53.839 39.0234 53.9796 39.2801 54.1371C39.5142 54.2806 39.7334 54.3154 40.0046 54.2729C40.3051 54.2257 40.4554 54.1115 40.6839 53.9107C41.1194 53.5276 41.3056 53.211 41.6347 52.7333C42.7574 51.104 42.8641 49.8497 43.6271 48.0242C44.9474 44.8655 46.6156 39.783 46.6156 39.783C47.4564 37.3519 47.9554 35.9969 48.6985 33.5343C49.5077 30.8526 49.9321 29.3371 50.555 26.6063C50.8843 25.1625 51.3248 22.8932 51.3248 22.8932C51.5718 21.6055 51.7743 20.8914 51.9135 19.5878C52.0207 18.5841 52.0219 18.0157 52.0493 17.0067C52.0786 15.9284 52.1399 15.3766 52.0493 14.2445C52.0144 13.8085 51.9028 13.577 51.7776 13.1579C51.6544 12.7452 51.6485 12.5692 51.4154 12.1164C51.2807 11.8546 51.1895 11.7141 51.0078 11.4824C50.7223 11.1182 50.5098 10.9844 50.1475 10.6674C49.8364 10.3951 49.5725 10.343 49.1715 10.2638L49.1513 10.2599C48.735 10.1776 48.0646 10.2599 48.0646 10.2599C48.0646 10.2599 47.2566 10.2924 46.7514 10.3957C46.1872 10.5111 45.8812 10.6314 45.3477 10.8485C44.6443 11.1346 44.2943 11.3916 43.6271 11.7541C43.0219 12.0829 42.7003 12.3 42.0876 12.6145L42.0744 12.6212C41.4914 12.9204 41.1591 13.0909 40.5479 13.3389C39.8327 13.6293 39.4101 13.7516 38.6775 13.9638L38.6462 13.9729C37.7728 14.2258 37.2791 14.3674 36.3821 14.5162C35.7849 14.6153 34.8426 14.6974 34.8426 14.6974H33.3483L31.6276 14.6068C31.6276 14.6068 30.7907 14.5464 30.2692 14.4257C29.817 14.3211 29.1372 14.0635 29.1372 14.0635L27.4618 13.5201C26.8075 13.3079 25.8317 12.7503 25.8317 12.7503Z" fill="#44C6E9"/>
<path d="M77.4052 53.1941C76.5319 53.1941 75.7438 52.958 75.0409 52.4859C74.3486 52.002 73.8055 51.3116 73.4114 50.4145C73.0173 49.5175 72.8203 48.4375 72.8203 47.1747C72.8203 46.2423 72.9322 45.4042 73.1558 44.6606C73.3901 43.9171 73.7202 43.2857 74.1462 42.7663C74.5723 42.2352 75.0622 41.8339 75.6159 41.5625C76.1804 41.291 76.7982 41.1553 77.4691 41.1553C78.0975 41.1553 78.6566 41.2968 79.1465 41.5801C79.647 41.8634 80.0464 42.1997 80.3447 42.5893L79.6258 43.4922C79.3489 43.1617 79.0293 42.908 78.6672 42.7309C78.3158 42.5421 77.9218 42.4476 77.4851 42.4476C76.8354 42.4476 76.2603 42.6424 75.7597 43.0319C75.2698 43.4095 74.8864 43.9525 74.6095 44.6606C74.3326 45.357 74.1942 46.1832 74.1942 47.1393C74.1942 48.1189 74.3273 48.9627 74.5935 49.6709C74.8598 50.3791 75.2432 50.9279 75.7438 51.3174C76.2443 51.6951 76.8301 51.8839 77.5011 51.8839C77.991 51.8839 78.4276 51.7836 78.811 51.5829C79.2051 51.3705 79.5619 51.0637 79.8814 50.6624L80.5843 51.5298C80.169 52.061 79.7057 52.4741 79.1944 52.7692C78.6832 53.0525 78.0868 53.1941 77.4052 53.1941ZM83.6986 52.9816V45.5635H81.0946V44.3774H87.6125V45.5635H85.0086V52.9816H83.6986ZM92.1382 53.1941C91.5097 53.1941 90.9187 53.017 90.3649 52.6629C89.8218 52.3089 89.3797 51.7955 89.039 51.1227C88.7088 50.4499 88.5437 49.6414 88.5437 48.6972C88.5437 47.7294 88.7088 46.9091 89.039 46.2363C89.3797 45.5635 89.8218 45.0501 90.3649 44.6961C90.9187 44.342 91.5097 44.165 92.1382 44.165C92.7772 44.165 93.3683 44.342 93.9114 44.6961C94.4546 45.0501 94.8912 45.5635 95.2214 46.2363C95.5622 46.9091 95.7325 47.7294 95.7325 48.6972C95.7325 49.6414 95.5622 50.4499 95.2214 51.1227C94.8912 51.7955 94.4546 52.3089 93.9114 52.6629C93.3683 53.017 92.7772 53.1941 92.1382 53.1941ZM92.1382 51.9902C92.5855 51.9902 92.9794 51.8544 93.3203 51.5829C93.6611 51.2997 93.9221 50.9102 94.1031 50.4145C94.2841 49.9188 94.3747 49.3463 94.3747 48.6972C94.3747 48.0362 94.2841 47.4579 94.1031 46.9622C93.9221 46.4547 93.6611 46.0652 93.3203 45.7937C92.9794 45.5104 92.5855 45.3689 92.1382 45.3689C91.6908 45.3689 91.2968 45.5104 90.9559 45.7937C90.6258 46.0652 90.3649 46.4547 90.1732 46.9622C89.9922 47.4579 89.9016 48.0362 89.9016 48.6972C89.9016 49.3463 89.9922 49.9188 90.1732 50.4145C90.3649 50.9102 90.6258 51.2997 90.9559 51.5829C91.2968 51.8544 91.6908 51.9902 92.1382 51.9902ZM97.7769 52.9816V44.3774H99.3585L100.86 48.3786C100.978 48.7091 101.09 49.0454 101.196 49.3877C101.313 49.7299 101.42 50.1017 101.516 50.503H101.58C101.696 50.1017 101.803 49.7299 101.899 49.3877C102.005 49.0454 102.118 48.7091 102.234 48.3786L103.689 44.3774H105.286V52.9816H104.071V49.1221C104.071 48.8507 104.077 48.5437 104.088 48.2015C104.109 47.8474 104.13 47.4874 104.152 47.1216C104.173 46.7557 104.194 46.4193 104.216 46.1124H104.152C104.045 46.4783 103.927 46.8442 103.8 47.21C103.683 47.576 103.565 47.9241 103.449 48.2546L102.026 52.1672H101.036L99.5827 48.2546C99.4759 47.9241 99.3585 47.576 99.2313 47.21C99.1138 46.8442 98.9963 46.4783 98.8798 46.1124H98.8157C98.8371 46.4193 98.8585 46.7557 98.8798 47.1216C98.9119 47.4874 98.9332 47.8474 98.9439 48.2015C98.9546 48.5437 98.9594 48.8507 98.9594 49.1221V52.9816H97.7769ZM109.676 53.1941C109.25 53.1941 108.861 53.0996 108.51 52.9108C108.169 52.7101 107.897 52.4328 107.695 52.0787C107.492 51.7128 107.391 51.2702 107.391 50.7509C107.391 49.783 107.775 49.0513 108.542 48.5556C109.308 48.0598 110.523 47.7117 112.184 47.511C112.173 47.1569 112.12 46.8147 112.024 46.4842C111.939 46.1537 111.779 45.8881 111.545 45.6875C111.311 45.4868 110.986 45.3865 110.57 45.3865C110.124 45.3865 109.702 45.4809 109.308 45.6698C108.915 45.8468 108.563 46.0475 108.254 46.2718L107.743 45.2803C107.977 45.1032 108.254 44.9322 108.574 44.7669C108.893 44.5898 109.239 44.4482 109.612 44.342C109.985 44.2239 110.379 44.165 110.794 44.165C111.423 44.165 111.933 44.3125 112.327 44.6075C112.732 44.8908 113.025 45.298 113.207 45.8292C113.398 46.3602 113.494 46.9858 113.494 47.7058V52.9816H112.408L112.295 51.9548H112.248C111.875 52.297 111.476 52.5922 111.05 52.84C110.624 53.0761 110.166 53.1941 109.676 53.1941ZM110.043 51.9902C110.426 51.9902 110.784 51.8958 111.114 51.7069C111.455 51.5181 111.811 51.2407 112.184 50.8748V48.5556C111.311 48.6736 110.619 48.827 110.107 49.0159C109.607 49.1929 109.245 49.4172 109.021 49.6887C108.797 49.9601 108.686 50.2847 108.686 50.6624C108.686 51.1345 108.819 51.4767 109.085 51.6893C109.351 51.8898 109.67 51.9902 110.043 51.9902ZM117.427 52.9816V45.5635H114.824V44.3774H121.342V45.5635H118.738V52.9816H117.427ZM125.867 53.1941C125.239 53.1941 124.648 53.017 124.094 52.6629C123.551 52.3089 123.109 51.7955 122.768 51.1227C122.438 50.4499 122.273 49.6414 122.273 48.6972C122.273 47.7294 122.438 46.9091 122.768 46.2363C123.109 45.5635 123.551 45.0501 124.094 44.6961C124.648 44.342 125.239 44.165 125.867 44.165C126.506 44.165 127.097 44.342 127.641 44.6961C128.184 45.0501 128.621 45.5635 128.951 46.2363C129.291 46.9091 129.461 47.7294 129.461 48.6972C129.461 49.6414 129.291 50.4499 128.951 51.1227C128.621 51.7955 128.184 52.3089 127.641 52.6629C127.097 53.017 126.506 53.1941 125.867 53.1941ZM125.867 51.9902C126.315 51.9902 126.708 51.8544 127.05 51.5829C127.391 51.2997 127.651 50.9102 127.832 50.4145C128.013 49.9188 128.104 49.3463 128.104 48.6972C128.104 48.0362 128.013 47.4579 127.832 46.9622C127.651 46.4547 127.391 46.0652 127.05 45.7937C126.708 45.5104 126.315 45.3689 125.867 45.3689C125.42 45.3689 125.025 45.5104 124.686 45.7937C124.355 46.0652 124.094 46.4547 123.902 46.9622C123.722 47.4579 123.631 48.0362 123.631 48.6972C123.631 49.3463 123.722 49.9188 123.902 50.4145C124.094 50.9102 124.355 51.2997 124.686 51.5829C125.025 51.8544 125.42 51.9902 125.867 51.9902ZM131.058 53.141C130.921 53.141 130.798 53.1292 130.691 53.1056C130.586 53.082 130.473 53.0465 130.356 52.9994L130.612 51.6715C130.665 51.6833 130.719 51.701 130.771 51.7246C130.835 51.7364 130.899 51.7424 130.963 51.7424C131.229 51.7424 131.453 51.6007 131.634 51.3174C131.816 51.0224 131.937 50.568 132.001 49.9542C132.108 49.0336 132.209 48.1071 132.305 47.1747C132.401 46.2423 132.496 45.3098 132.592 44.3774H137.369V52.9816H136.043V45.5635H133.631C133.546 46.3544 133.46 47.1511 133.375 47.9536C133.301 48.7444 133.216 49.5352 133.12 50.326C133.014 51.2585 132.785 51.9607 132.433 52.4327C132.092 52.9049 131.634 53.141 131.058 53.141ZM143.013 53.1941C142.384 53.1941 141.793 53.017 141.239 52.6629C140.696 52.3089 140.255 51.7955 139.913 51.1227C139.584 50.4499 139.418 49.6414 139.418 48.6972C139.418 47.7294 139.584 46.9091 139.913 46.2363C140.255 45.5635 140.696 45.0501 141.239 44.6961C141.793 44.342 142.384 44.165 143.013 44.165C143.652 44.165 144.243 44.342 144.786 44.6961C145.328 45.0501 145.766 45.5635 146.095 46.2363C146.437 46.9091 146.607 47.7294 146.607 48.6972C146.607 49.6414 146.437 50.4499 146.095 51.1227C145.766 51.7955 145.328 52.3089 144.786 52.6629C144.243 53.017 143.652 53.1941 143.013 53.1941ZM143.013 51.9902C143.459 51.9902 143.854 51.8544 144.194 51.5829C144.536 51.2997 144.796 50.9102 144.977 50.4145C145.158 49.9188 145.249 49.3463 145.249 48.6972C145.249 48.0362 145.158 47.4579 144.977 46.9622C144.796 46.4547 144.536 46.0652 144.194 45.7937C143.854 45.5104 143.459 45.3689 143.013 45.3689C142.565 45.3689 142.171 45.5104 141.83 45.7937C141.5 46.0652 141.239 46.4547 141.048 46.9622C140.866 47.4579 140.776 48.0362 140.776 48.6972C140.776 49.3463 140.866 49.9188 141.048 50.4145C141.239 50.9102 141.5 51.2997 141.83 51.5829C142.171 51.8544 142.565 51.9902 143.013 51.9902ZM148.652 52.9816V44.3774H153.492V45.5635H149.961V52.9816H148.652ZM155.22 52.9816V44.3774H156.497V47.9536C156.497 48.4258 156.488 48.9274 156.465 49.4585C156.445 49.9896 156.413 50.5621 156.37 51.1758H156.433C156.583 50.8571 156.748 50.5207 156.929 50.1666C157.121 49.8007 157.291 49.488 157.44 49.2284L160.188 44.3774H161.625V52.9816H160.348V49.4054C160.348 48.9451 160.358 48.4494 160.38 47.9182C160.401 47.3753 160.433 46.797 160.475 46.1832H160.412C160.262 46.5019 160.097 46.8442 159.917 47.21C159.735 47.5641 159.565 47.8769 159.405 48.1484L156.641 52.9816H155.22ZM168.502 52.9816V49.547C168.225 49.6178 167.991 49.6651 167.799 49.6887C167.607 49.7123 167.335 49.724 166.984 49.724C166.324 49.724 165.765 49.6237 165.307 49.423C164.849 49.2225 164.497 48.9038 164.253 48.467C164.008 48.0186 163.885 47.4402 163.885 46.7321V44.3774H165.194V46.7321C165.194 47.3694 165.36 47.8297 165.691 48.1129C166.021 48.3962 166.537 48.5379 167.24 48.5379C167.474 48.5379 167.687 48.5261 167.879 48.5025C168.07 48.467 168.278 48.4258 168.502 48.3786V44.3774H169.812V52.9816H168.502ZM175.574 53.1941C174.883 53.1941 174.249 53.017 173.673 52.6629C173.109 52.297 172.661 51.7836 172.331 51.1227C172.001 50.4499 171.836 49.6356 171.836 48.6795C171.836 47.7471 172.007 46.9445 172.348 46.2718C172.688 45.599 173.125 45.0796 173.658 44.7138C174.19 44.3479 174.755 44.165 175.351 44.165C176.011 44.165 176.57 44.336 177.028 44.6784C177.496 45.0089 177.848 45.4751 178.083 46.077C178.317 46.679 178.434 47.3871 178.434 48.2015C178.434 48.355 178.428 48.5025 178.418 48.6441C178.418 48.7858 178.402 48.9274 178.37 49.069H172.779V47.9182H177.252C177.252 47.092 177.087 46.4606 176.757 46.0239C176.437 45.5754 175.974 45.3511 175.367 45.3511C175.016 45.3511 174.669 45.4632 174.328 45.6875C173.988 45.8999 173.705 46.2482 173.482 46.7321C173.269 47.216 173.162 47.8593 173.162 48.6618C173.162 49.3935 173.274 50.0073 173.497 50.503C173.732 50.9988 174.046 51.3764 174.44 51.6362C174.834 51.8839 175.265 52.0079 175.734 52.0079C176.107 52.0079 176.453 51.9489 176.773 51.8308C177.103 51.7128 177.401 51.5534 177.667 51.3528L178.147 52.3089C177.806 52.5686 177.423 52.781 176.996 52.9462C176.581 53.1114 176.107 53.1941 175.574 53.1941ZM183.436 53.1941C182.744 53.1941 182.121 53.017 181.567 52.6629C181.013 52.3089 180.576 51.7955 180.257 51.1227C179.937 50.4499 179.778 49.6414 179.778 48.6972C179.778 47.7294 179.948 46.9091 180.289 46.2363C180.64 45.5635 181.098 45.0501 181.662 44.6961C182.238 44.342 182.856 44.165 183.516 44.165C184.027 44.165 184.463 44.2594 184.825 44.4482C185.198 44.637 185.518 44.879 185.785 45.1741L185.129 46.077C184.937 45.8645 184.709 45.6994 184.442 45.5813C184.187 45.4515 183.894 45.3865 183.563 45.3865C183.105 45.3865 182.691 45.5282 182.318 45.8114C181.956 46.0828 181.668 46.4664 181.455 46.9622C181.242 47.4579 181.135 48.0362 181.135 48.6972C181.135 49.3463 181.236 49.9188 181.439 50.4145C181.641 50.9102 181.924 51.2997 182.286 51.5829C182.648 51.8544 183.068 51.9902 183.548 51.9902C183.91 51.9902 184.246 51.9135 184.555 51.76C184.862 51.6065 185.129 51.4119 185.353 51.1758L185.928 52.061C185.597 52.4032 185.225 52.6806 184.81 52.8931C184.394 53.0937 183.936 53.1941 183.436 53.1941ZM187.638 52.9816V44.3774H188.948V47.9182H190.578L191.345 46.0061C191.557 45.4987 191.765 45.121 191.967 44.8731C192.18 44.6134 192.399 44.4364 192.623 44.342C192.857 44.2476 193.118 44.2003 193.405 44.2003C193.576 44.2003 193.73 44.2358 193.868 44.3065L193.628 45.6698C193.586 45.6462 193.544 45.6344 193.501 45.6344C193.469 45.6226 193.426 45.6167 193.373 45.6167C193.171 45.6167 192.979 45.6816 192.798 45.8114C192.627 45.9413 192.447 46.254 192.255 46.7497L191.584 48.4494L194.092 52.9816H192.655L190.625 49.1044H188.948V52.9816H187.638ZM197.181 53.1941C196.755 53.1941 196.366 53.0996 196.015 52.9108C195.674 52.7101 195.402 52.4328 195.2 52.0787C194.997 51.7128 194.896 51.2702 194.896 50.7509C194.896 49.783 195.28 49.0513 196.047 48.5556C196.814 48.0598 198.027 47.7117 199.69 47.511C199.678 47.1569 199.625 46.8147 199.529 46.4842C199.444 46.1537 199.285 45.8881 199.05 45.6875C198.816 45.4868 198.491 45.3865 198.076 45.3865C197.628 45.3865 197.208 45.4809 196.814 45.6698C196.42 45.8468 196.068 46.0475 195.759 46.2718L195.248 45.2803C195.483 45.1032 195.759 44.9322 196.079 44.7669C196.398 44.5898 196.745 44.4482 197.117 44.342C197.49 44.2239 197.884 44.165 198.299 44.165C198.927 44.165 199.439 44.3125 199.833 44.6075C200.237 44.8908 200.53 45.298 200.712 45.8292C200.903 46.3602 200.999 46.9858 200.999 47.7058V52.9816H199.913L199.801 51.9548H199.753C199.381 52.297 198.981 52.5922 198.555 52.84C198.128 53.0761 197.671 53.1941 197.181 53.1941ZM197.549 51.9902C197.932 51.9902 198.289 51.8958 198.619 51.7069C198.959 51.5181 199.317 51.2407 199.69 50.8748V48.5556C198.816 48.6736 198.124 48.827 197.612 49.0159C197.112 49.1929 196.75 49.4172 196.526 49.6887C196.302 49.9601 196.191 50.2847 196.191 50.6624C196.191 51.1345 196.324 51.4767 196.59 51.6893C196.857 51.8898 197.176 51.9902 197.549 51.9902ZM207.724 52.9816V49.6178H206.269C205.896 49.6178 205.529 49.5706 205.167 49.4761C204.805 49.3699 204.48 49.2106 204.192 48.9982C203.905 48.7739 203.671 48.4906 203.49 48.1484C203.32 47.8061 203.234 47.399 203.234 46.9268C203.234 46.2894 203.367 45.7878 203.633 45.422C203.911 45.0442 204.278 44.7787 204.736 44.6253C205.193 44.46 205.71 44.3774 206.286 44.3774H209.033V52.9816H207.724ZM206.509 48.4848H207.724V45.5104H206.509C205.902 45.5104 205.423 45.6285 205.071 45.8645C204.73 46.0888 204.56 46.4488 204.56 46.9445C204.56 47.4402 204.73 47.8238 205.071 48.0953C205.423 48.355 205.902 48.4848 206.509 48.4848ZM202.658 52.9816L205.358 48.892L206.461 49.3346L204.16 52.9816H202.658ZM214.861 52.9816V44.3774H216.171V47.9182H217.801L218.568 46.0061C218.781 45.4987 218.989 45.121 219.19 44.8731C219.404 44.6134 219.623 44.4364 219.846 44.342C220.08 44.2476 220.341 44.2003 220.628 44.2003C220.799 44.2003 220.954 44.2358 221.091 44.3065L220.853 45.6698C220.81 45.6462 220.767 45.6344 220.724 45.6344C220.692 45.6226 220.65 45.6167 220.596 45.6167C220.394 45.6167 220.202 45.6816 220.022 45.8114C219.851 45.9413 219.67 46.254 219.479 46.7497L218.807 48.4494L221.316 52.9816H219.878L217.849 49.1044H216.171V52.9816H214.861ZM222.324 53.141C222.186 53.141 222.062 53.1292 221.957 53.1056C221.85 53.082 221.738 53.0465 221.622 52.9994L221.877 51.6715C221.93 51.6833 221.983 51.701 222.036 51.7246C222.1 51.7364 222.164 51.7424 222.228 51.7424C222.494 51.7424 222.718 51.6007 222.899 51.3174C223.08 51.0224 223.203 50.568 223.266 49.9542C223.373 49.0336 223.474 48.1071 223.57 47.1747C223.666 46.2423 223.761 45.3098 223.857 44.3774H228.634V52.9816H227.308V45.5635H224.896C224.811 46.3544 224.725 47.1511 224.64 47.9536C224.566 48.7444 224.481 49.5352 224.385 50.326C224.278 51.2585 224.05 51.9607 223.698 52.4327C223.357 52.9049 222.899 53.141 222.324 53.141ZM231.258 52.9816V44.3774H232.536V47.9536C232.536 48.4258 232.525 48.9274 232.504 49.4585C232.483 49.9896 232.451 50.5621 232.408 51.1758H232.472C232.622 50.8571 232.787 50.5207 232.967 50.1666C233.159 49.8007 233.329 49.488 233.479 49.2284L236.226 44.3774H237.664V52.9816H236.387V49.4054C236.387 48.9451 236.396 48.4494 236.419 47.9182C236.439 47.3753 236.471 46.797 236.514 46.1832H236.45C236.301 46.5019 236.136 46.8442 235.955 47.21C235.774 47.5641 235.603 47.8769 235.444 48.1484L232.68 52.9816H231.258ZM240.291 52.9816V44.3774H241.601V47.8651H245.339V44.3774H246.649V52.9816H245.339V49.1575H241.601V52.9816H240.291ZM249.261 52.9816V44.3774H250.54V47.9536C250.54 48.4258 250.528 48.9274 250.508 49.4585C250.487 49.9896 250.455 50.5621 250.412 51.1758H250.476C250.624 50.8571 250.79 50.5207 250.971 50.1666C251.162 49.8007 251.333 49.488 251.482 49.2284L254.229 44.3774H255.667V52.9816H254.39V49.4054C254.39 48.9451 254.4 48.4494 254.422 47.9182C254.443 47.3753 254.475 46.797 254.518 46.1832H254.454C254.304 46.5019 254.139 46.8442 253.958 47.21C253.777 47.5641 253.607 47.8769 253.447 48.1484L250.684 52.9816H249.261ZM258.294 52.9816V44.3774H259.604V47.9182H261.234L262 46.0061C262.214 45.4987 262.422 45.121 262.624 44.8731C262.836 44.6134 263.055 44.4364 263.279 44.342C263.513 44.2476 263.774 44.2003 264.061 44.2003C264.232 44.2003 264.386 44.2358 264.524 44.3065L264.285 45.6698C264.242 45.6462 264.2 45.6344 264.158 45.6344C264.125 45.6226 264.083 45.6167 264.029 45.6167C263.827 45.6167 263.635 45.6816 263.455 45.8114C263.284 45.9413 263.103 46.254 262.911 46.7497L262.24 48.4494L264.749 52.9816H263.311L261.282 49.1044H259.604V52.9816H258.294ZM267.837 53.1941C267.412 53.1941 267.023 53.0996 266.671 52.9108C266.33 52.7101 266.058 52.4328 265.857 52.0787C265.655 51.7128 265.553 51.2702 265.553 50.7509C265.553 49.783 265.936 49.0513 266.703 48.5556C267.47 48.0598 268.684 47.7117 270.345 47.511C270.335 47.1569 270.282 46.8147 270.186 46.4842C270.1 46.1537 269.941 45.8881 269.706 45.6875C269.472 45.4868 269.147 45.3865 268.732 45.3865C268.285 45.3865 267.864 45.4809 267.47 45.6698C267.076 45.8468 266.724 46.0475 266.416 46.2718L265.904 45.2803C266.139 45.1032 266.416 44.9322 266.735 44.7669C267.055 44.5898 267.4 44.4482 267.773 44.342C268.146 44.2239 268.54 44.165 268.956 44.165C269.584 44.165 270.095 44.3125 270.489 44.6075C270.894 44.8908 271.187 45.298 271.368 45.8292C271.559 46.3602 271.656 46.9858 271.656 47.7058V52.9816H270.569L270.457 51.9548H270.409C270.036 52.297 269.637 52.5922 269.211 52.84C268.786 53.0761 268.327 53.1941 267.837 53.1941ZM268.205 51.9902C268.588 51.9902 268.945 51.8958 269.275 51.7069C269.616 51.5181 269.973 51.2407 270.345 50.8748V48.5556C269.472 48.6736 268.78 48.827 268.268 49.0159C267.768 49.1929 267.406 49.4172 267.182 49.6887C266.958 49.9601 266.847 50.2847 266.847 50.6624C266.847 51.1345 266.98 51.4767 267.246 51.6893C267.513 51.8898 267.832 51.9902 268.205 51.9902Z" fill="#0F2650"/>
<g filter="url(#filter0_d_97_3401)">
<path d="M72.8203 30.9886V8.99243H76.9752V18.0353H86.8123V8.99243H90.9671V30.9886H86.8123V21.9152H76.9752V30.9886H72.8203ZM113.86 30.9886H109.645V16.3245L100.083 30.9886H95.8666V8.99243H100.083V23.6565L109.645 8.99243H113.86V30.9886ZM128.174 31.4468C125.974 31.4468 124.075 30.9682 122.476 30.0109C120.888 29.0537 119.66 27.7146 118.795 25.9936C117.939 24.2726 117.512 22.2716 117.512 19.9905C117.512 17.7094 117.939 15.7084 118.795 13.9874C119.66 12.2664 120.888 10.9272 122.476 9.97003C124.075 9.0128 125.974 8.53418 128.174 8.53418C130.699 8.53418 132.818 9.16046 134.528 10.413C136.25 11.6656 137.461 13.3611 138.163 15.4997L133.978 16.6605C133.571 15.3265 132.884 14.2929 131.916 13.5597C130.949 12.8163 129.701 12.4446 128.174 12.4446C126.779 12.4446 125.613 12.7552 124.676 13.3764C123.749 13.9975 123.052 14.8733 122.583 16.0037C122.115 17.134 121.881 18.463 121.881 19.9905C121.881 21.518 122.115 22.8469 122.583 23.9773C123.052 25.1076 123.749 25.9834 124.676 26.6046C125.613 27.2258 126.779 27.5364 128.174 27.5364C129.701 27.5364 130.949 27.1647 131.916 26.4213C132.884 25.6779 133.571 24.6443 133.978 23.3204L138.163 24.4814C137.461 26.6199 136.25 28.3154 134.528 29.568C132.818 30.8205 130.699 31.4468 128.174 31.4468ZM151.578 31.4468C149.379 31.4468 147.479 30.9682 145.881 30.0109C144.291 29.0537 143.064 27.7146 142.199 25.9936C141.344 24.2726 140.916 22.2716 140.916 19.9905C140.916 17.7094 141.344 15.7084 142.199 13.9874C143.064 12.2664 144.291 10.9272 145.881 9.97003C147.479 9.0128 149.379 8.53418 151.578 8.53418C153.778 8.53418 155.672 9.0128 157.26 9.97003C158.859 10.9272 160.087 12.2664 160.942 13.9874C161.807 15.7084 162.24 17.7094 162.24 19.9905C162.24 22.2716 161.807 24.2726 160.942 25.9936C160.087 27.7146 158.859 29.0537 157.26 30.0109C155.672 30.9682 153.778 31.4468 151.578 31.4468ZM151.578 27.5364C152.973 27.5567 154.134 27.2564 155.06 26.6352C155.988 26.0139 156.68 25.1331 157.138 23.9926C157.607 22.852 157.841 21.518 157.841 19.9905C157.841 18.463 157.607 17.1392 157.138 16.019C156.68 14.8988 155.988 14.0281 155.06 13.4069C154.134 12.7858 152.973 12.465 151.578 12.4446C150.183 12.4242 149.022 12.7246 148.095 13.3459C147.168 13.967 146.471 14.8479 146.003 15.9884C145.545 17.129 145.316 18.463 145.316 19.9905C145.316 21.518 145.545 22.8418 146.003 23.962C146.471 25.0822 147.168 25.9529 148.095 26.574C149.022 27.1952 150.183 27.516 151.578 27.5364Z" fill="#44C6E9"/>
</g>
</g>
<defs>
<filter id="filter0_d_97_3401" x="72.8203" y="8.53418" width="90.4199" height="23.9131" filterUnits="userSpaceOnUse" color-interpolation-filters="sRGB">
<feFlood flood-opacity="0" result="BackgroundImageFix"/>
<feColorMatrix in="SourceAlpha" type="matrix" values="0 0 0 0 0 0 0 0 0 0 0 0 0 0 0 0 0 0 127 0" result="hardAlpha"/>
<feOffset dx="1" dy="1"/>
<feComposite in2="hardAlpha" operator="out"/>
<feColorMatrix type="matrix" values="0 0 0 0 0.831373 0 0 0 0 0.894118 0 0 0 0 0.956863 0 0 0 1 0"/>
<feBlend mode="normal" in2="BackgroundImageFix" result="effect1_dropShadow_97_3401"/>
<feBlend mode="normal" in="SourceGraphic" in2="effect1_dropShadow_97_3401" result="shape"/>
</filter>
<clipPath id="clip0_97_3401">
<rect width="271.748" height="60" fill="white" transform="translate(0 0.884766)"/>
</clipPath>
</defs>
</svg>
