<svg width="359" height="401" viewBox="0 0 359 401" fill="none" xmlns="http://www.w3.org/2000/svg">
<path opacity="0.6" fill-rule="evenodd" clip-rule="evenodd" d="M228.024 7.86213C199.839 20.0914 159.16 20.0914 130.975 7.86205C108.075 -2.07413 82.46 -2.99555 58.8248 7.41621C8.9472 29.3882 -13.4239 93.5975 8.28489 151.52C8.2897 151.533 8.28948 151.547 8.28421 151.56V151.56L15.0587 166.478C37.959 216.907 55.2203 269.771 66.5212 324.085L77.2713 375.752C80.9915 390.605 94.138 401 109.203 401C125.382 401 139.168 389.049 141.737 372.795L156.892 276.898C158.677 265.603 168.257 257.298 179.5 257.298C190.743 257.298 200.323 265.603 202.108 276.898L217.263 372.795C219.832 389.049 233.618 401 249.797 401C264.862 401 278.008 390.605 281.729 375.752L292.479 324.085C303.78 269.771 321.041 216.907 343.941 166.478L350.716 151.56V151.56C350.711 151.547 350.71 151.533 350.715 151.52C372.424 93.5975 350.053 29.3882 300.175 7.41621C276.54 -2.99566 250.925 -2.07418 228.024 7.86213Z" fill="url(#paint0_linear_2026_591)" fill-opacity="0.7"/>
<defs>
<linearGradient id="paint0_linear_2026_591" x1="47.5147" y1="-4.80528e-07" x2="268.135" y2="382.558" gradientUnits="userSpaceOnUse">
<stop stop-color="#F0F6F9"/>
<stop offset="1" stop-color="#44C6E9" stop-opacity="0.5"/>
</linearGradient>
</defs>
</svg>
