<svg width="600" height="452" viewBox="0 0 600 452" fill="none" xmlns="http://www.w3.org/2000/svg">
<g clip-path="url(#clip0_249_7417)">
<rect width="600" height="452" fill="url(#paint0_linear_249_7417)" fill-opacity="0.7"/>
<g opacity="0.5">
<ellipse cx="609.748" cy="138.988" rx="167.483" ry="163.93" transform="rotate(-180 609.748 138.988)" fill="url(#paint1_linear_249_7417)"/>
<ellipse cx="186.016" cy="430.783" rx="83.7416" ry="81.9649" transform="rotate(-180 186.016 430.783)" fill="url(#paint2_linear_249_7417)"/>
<ellipse cx="-19.9892" cy="138.988" rx="83.7416" ry="81.9649" transform="rotate(-180 -19.9892 138.988)" fill="url(#paint3_linear_249_7417)"/>
<ellipse cx="311.633" cy="261.935" rx="41.8708" ry="40.9824" transform="rotate(-180 311.633 261.935)" fill="url(#paint4_linear_249_7417)"/>
<ellipse cx="606.394" cy="488.158" rx="41.8708" ry="40.9824" transform="rotate(-180 606.394 488.158)" fill="url(#paint5_linear_249_7417)"/>
<ellipse cx="-11.6264" cy="488.158" rx="41.8708" ry="40.9824" transform="rotate(-180 -11.6264 488.158)" fill="url(#paint6_linear_249_7417)"/>
<ellipse cx="186.017" cy="101.284" rx="41.8708" ry="40.9824" transform="rotate(-180 186.017 101.284)" fill="url(#paint7_linear_249_7417)"/>
<ellipse cx="160.889" cy="278.328" rx="25.1225" ry="24.5895" transform="rotate(-180 160.889 278.328)" fill="url(#paint8_linear_249_7417)"/>
<ellipse cx="485.81" cy="373.408" rx="25.1225" ry="24.5895" transform="rotate(-180 485.81 373.408)" fill="url(#paint9_linear_249_7417)"/>
<ellipse cx="336.75" cy="35.7119" rx="25.1225" ry="24.5895" transform="rotate(-180 336.75 35.7119)" fill="url(#paint10_linear_249_7417)"/>
</g>
</g>
<defs>
<linearGradient id="paint0_linear_249_7417" x1="79.4118" y1="-5.41643e-07" x2="273.541" y2="499.121" gradientUnits="userSpaceOnUse">
<stop stop-color="#F0F6F9"/>
<stop offset="1" stop-color="#44C6E9" stop-opacity="0.5"/>
</linearGradient>
<linearGradient id="paint1_linear_249_7417" x1="609.748" y1="-24.9422" x2="609.748" y2="302.917" gradientUnits="userSpaceOnUse">
<stop stop-color="#44C6E9" stop-opacity="0.5"/>
<stop offset="1" stop-color="#D4E4F4" stop-opacity="0.3"/>
</linearGradient>
<linearGradient id="paint2_linear_249_7417" x1="186.016" y1="348.818" x2="186.016" y2="512.748" gradientUnits="userSpaceOnUse">
<stop stop-color="#44C6E9" stop-opacity="0.5"/>
<stop offset="1" stop-color="#D4E4F4" stop-opacity="0.3"/>
</linearGradient>
<linearGradient id="paint3_linear_249_7417" x1="-19.9892" y1="57.0229" x2="-19.9892" y2="220.953" gradientUnits="userSpaceOnUse">
<stop stop-color="#44C6E9" stop-opacity="0.5"/>
<stop offset="1" stop-color="#D4E4F4" stop-opacity="0.3"/>
</linearGradient>
<linearGradient id="paint4_linear_249_7417" x1="311.633" y1="220.952" x2="311.633" y2="302.917" gradientUnits="userSpaceOnUse">
<stop stop-color="#44C6E9" stop-opacity="0.5"/>
<stop offset="1" stop-color="#D4E4F4" stop-opacity="0.3"/>
</linearGradient>
<linearGradient id="paint5_linear_249_7417" x1="606.394" y1="447.176" x2="606.394" y2="529.14" gradientUnits="userSpaceOnUse">
<stop stop-color="#44C6E9" stop-opacity="0.5"/>
<stop offset="1" stop-color="#D4E4F4" stop-opacity="0.3"/>
</linearGradient>
<linearGradient id="paint6_linear_249_7417" x1="-11.6264" y1="447.176" x2="-11.6264" y2="529.14" gradientUnits="userSpaceOnUse">
<stop stop-color="#44C6E9" stop-opacity="0.5"/>
<stop offset="1" stop-color="#D4E4F4" stop-opacity="0.3"/>
</linearGradient>
<linearGradient id="paint7_linear_249_7417" x1="186.017" y1="60.3014" x2="186.017" y2="142.266" gradientUnits="userSpaceOnUse">
<stop stop-color="#44C6E9" stop-opacity="0.5"/>
<stop offset="1" stop-color="#D4E4F4" stop-opacity="0.3"/>
</linearGradient>
<linearGradient id="paint8_linear_249_7417" x1="160.889" y1="253.738" x2="160.889" y2="302.917" gradientUnits="userSpaceOnUse">
<stop stop-color="#44C6E9" stop-opacity="0.5"/>
<stop offset="1" stop-color="#D4E4F4" stop-opacity="0.3"/>
</linearGradient>
<linearGradient id="paint9_linear_249_7417" x1="485.81" y1="348.819" x2="485.81" y2="397.998" gradientUnits="userSpaceOnUse">
<stop stop-color="#44C6E9" stop-opacity="0.5"/>
<stop offset="1" stop-color="#D4E4F4" stop-opacity="0.3"/>
</linearGradient>
<linearGradient id="paint10_linear_249_7417" x1="336.75" y1="11.1225" x2="336.75" y2="60.3014" gradientUnits="userSpaceOnUse">
<stop stop-color="#44C6E9" stop-opacity="0.5"/>
<stop offset="1" stop-color="#D4E4F4" stop-opacity="0.3"/>
</linearGradient>
<clipPath id="clip0_249_7417">
<rect width="600" height="452" fill="white"/>
</clipPath>
</defs>
</svg>
