<svg width="24" height="24" viewBox="0 0 24 24" fill="none" xmlns="http://www.w3.org/2000/svg">
<path d="M9.57066 15.5356L18.1284 6.97805C18.2687 6.83755 18.4327 6.76572 18.6202 6.76255C18.8077 6.75938 18.9748 6.83122 19.1217 6.97805C19.2683 7.12472 19.3417 7.29147 19.3417 7.4783C19.3417 7.6653 19.2683 7.83055 19.1217 7.97405L10.1754 16.9278C9.99974 17.1035 9.79816 17.1913 9.57066 17.1913C9.34299 17.1913 9.14299 17.1035 8.97066 16.9278L4.87641 12.8338C4.73274 12.6933 4.66066 12.5289 4.66016 12.3406C4.65949 12.1521 4.73249 11.9844 4.87916 11.8376C5.02599 11.6907 5.19283 11.6173 5.37966 11.6173C5.56649 11.6173 5.73333 11.6907 5.88016 11.8376L9.57066 15.5356Z" fill="#0ECE00"/>
</svg>
