<svg width="22" height="24" viewBox="0 0 22 24" fill="none" xmlns="http://www.w3.org/2000/svg">
<path d="M10.9999 0C8.25829 0 5.68073 1.06763 3.74212 3.00628C1.80351 4.94484 0.73584 7.52241 0.73584 10.264C0.73584 13.5094 2.27306 16.5583 4.86604 18.4935V23.2969C4.86604 23.563 5.01628 23.8063 5.25412 23.9255C5.35378 23.9754 5.46168 24 5.56907 24C5.71809 24 5.86617 23.9527 5.99001 23.8602L10.4679 20.5144C10.6457 20.5235 10.8238 20.5282 10.9999 20.5282C13.7415 20.5282 16.3191 19.4605 18.2577 17.5219C20.1963 15.5832 21.264 13.0057 21.264 10.264C21.264 7.52241 20.1963 4.94484 18.2577 3.00628C16.3191 1.06763 13.7415 0 10.9999 0ZM10.9999 19.1219C10.7712 19.1219 10.5386 19.113 10.3085 19.0952C10.1384 19.0821 9.96998 19.1311 9.83362 19.233L6.27229 21.8939V18.1331C6.27229 17.9022 6.15895 17.6861 5.96901 17.5548C3.57271 15.8979 2.14204 13.1724 2.14204 10.264C2.14209 5.37984 6.11573 1.40625 10.9999 1.40625C15.8841 1.40625 19.8577 5.37984 19.8577 10.264C19.8577 15.1483 15.8841 19.1219 10.9999 19.1219ZM12.1492 8.10164H9.85078C9.46246 8.10164 9.14765 8.41645 9.14765 8.80477V15.9298C9.14765 16.3181 9.46246 16.6329 9.85078 16.6329H12.1492C12.5375 16.6329 12.8523 16.3181 12.8523 15.9298V8.80477C12.8523 8.41645 12.5375 8.10164 12.1492 8.10164ZM11.446 15.2266H10.5539V9.50789H11.446V15.2266ZM10.9999 7.42195C12.0209 7.42195 12.8515 6.59133 12.8515 5.57039C12.8515 4.54945 12.0209 3.71883 10.9999 3.71883C9.97898 3.71883 9.14836 4.54945 9.14836 5.57039C9.14836 6.59133 9.97898 7.42195 10.9999 7.42195ZM10.9999 5.12508C11.2454 5.12508 11.4452 5.32486 11.4452 5.57039C11.4452 5.81592 11.2454 6.0157 10.9999 6.0157C10.7544 6.0157 10.5546 5.81592 10.5546 5.57039C10.5546 5.32486 10.7544 5.12508 10.9999 5.12508Z" fill="#44C6E9"/>
</svg>
