<svg width="16" height="16" viewBox="0 0 16 16" fill="none" xmlns="http://www.w3.org/2000/svg">
<path d="M9.46585 8.01334L15.6959 1.77797C16.1014 1.37239 16.1014 0.71661 15.6959 0.311025C15.2907 -0.0945603 14.6354 -0.0945603 14.2302 0.311025L7.99991 6.5464L1.76983 0.311025C1.36438 -0.0945603 0.709336 -0.0945603 0.304082 0.311025C-0.101361 0.71661 -0.101361 1.37239 0.304082 1.77797L6.53416 8.01334L0.304082 14.2487C-0.101361 14.6543 -0.101361 15.3101 0.304082 15.7157C0.506045 15.918 0.771595 16.0196 1.03695 16.0196C1.30232 16.0196 1.56768 15.918 1.76983 15.7157L7.99991 9.48029L14.2302 15.7157C14.4323 15.918 14.6977 16.0196 14.9631 16.0196C15.2284 16.0196 15.4938 15.918 15.6959 15.7157C16.1014 15.3101 16.1014 14.6543 15.6959 14.2487L9.46585 8.01334Z" fill="white"/>
</svg>
