<svg width="60" height="60" viewBox="0 0 60 60" fill="none" xmlns="http://www.w3.org/2000/svg">
<path d="M26.4519 35.3656L20.6444 29.5575C20.2981 29.2117 19.8629 29.0346 19.3388 29.0263C18.815 29.0183 18.3719 29.1954 18.0094 29.5575C17.6473 29.92 17.4662 30.3592 17.4662 30.875C17.4662 31.3908 17.6473 31.83 18.0094 32.1925L24.87 39.0531C25.3221 39.5048 25.8494 39.7306 26.4519 39.7306C27.0544 39.7306 27.5817 39.5048 28.0338 39.0531L41.9425 25.1444C42.2883 24.7981 42.4654 24.3629 42.4738 23.8387C42.4817 23.315 42.3046 22.8719 41.9425 22.5094C41.58 22.1473 41.1408 21.9663 40.625 21.9663C40.1092 21.9663 39.67 22.1473 39.3075 22.5094L26.4519 35.3656ZM30.0044 53.75C26.7194 53.75 23.6317 53.1267 20.7412 51.88C17.8508 50.6333 15.3367 48.9415 13.1987 46.8044C11.0608 44.6673 9.36812 42.1542 8.12062 39.265C6.87354 36.3758 6.25 33.289 6.25 30.0044C6.25 26.7194 6.87333 23.6317 8.12 20.7412C9.36667 17.8508 11.0585 15.3367 13.1956 13.1987C15.3327 11.0608 17.8458 9.36812 20.735 8.12062C23.6242 6.87354 26.711 6.25 29.9956 6.25C33.2806 6.25 36.3683 6.87333 39.2588 8.12C42.1492 9.36667 44.6633 11.0585 46.8013 13.1956C48.9392 15.3327 50.6319 17.8458 51.8794 20.735C53.1265 23.6242 53.75 26.711 53.75 29.9956C53.75 33.2806 53.1267 36.3683 51.88 39.2588C50.6333 42.1492 48.9415 44.6633 46.8044 46.8013C44.6673 48.9392 42.1542 50.6319 39.265 51.8794C36.3758 53.1265 33.289 53.75 30.0044 53.75ZM30 50C35.5833 50 40.3125 48.0625 44.1875 44.1875C48.0625 40.3125 50 35.5833 50 30C50 24.4167 48.0625 19.6875 44.1875 15.8125C40.3125 11.9375 35.5833 10 30 10C24.4167 10 19.6875 11.9375 15.8125 15.8125C11.9375 19.6875 10 24.4167 10 30C10 35.5833 11.9375 40.3125 15.8125 44.1875C19.6875 48.0625 24.4167 50 30 50Z" fill="#00A930"/>
</svg>
