<svg width="32" height="33" viewBox="0 0 32 33" fill="none" xmlns="http://www.w3.org/2000/svg">
<mask id="mask0_97_3449" style="mask-type:luminance" maskUnits="userSpaceOnUse" x="0" y="0" width="32" height="33">
<path d="M31.9988 0.884766H0V32.8668H31.9988V0.884766Z" fill="white"/>
</mask>
<g mask="url(#mask0_97_3449)">
<path d="M31.5089 4.31589C31.1184 3.83639 30.5322 3.57227 29.8582 3.57227C29.4946 3.57227 29.1093 3.64839 28.7132 3.79845L1.62224 14.0628C0.181802 14.6087 -0.0120728 15.4304 0.000552172 15.8716C0.0131147 16.3106 0.251302 17.114 1.70118 17.5777L7.4465 19.6831L10.4744 26.6142C10.7788 27.5728 11.4148 28.2453 12.2266 28.4635C12.4137 28.5138 12.6048 28.5385 12.7972 28.5385C13.4564 28.5385 14.1314 28.2482 14.7144 27.7007L17.223 25.3438L23.3439 29.5568C23.8952 29.9642 24.495 30.1793 25.0799 30.1793C26.267 30.1792 27.2138 29.3102 27.492 27.9653L31.9227 6.53639C32.1048 5.6557 31.9578 4.86714 31.5089 4.31589ZM9.35056 19.3578L17.1688 15.1653L11.72 20.1633C11.526 20.3413 11.4179 20.592 11.4176 20.8532C11.4173 20.8628 11.4161 20.8722 11.416 20.8818L11.3972 24.0426L9.35056 19.3578ZM13.4306 26.3341C13.3728 26.3884 13.3149 26.4361 13.2576 26.4777L13.2806 22.6301L15.6425 24.2559L13.4306 26.3341ZM30.0865 6.1567L25.6559 27.5856C25.6112 27.8016 25.4656 28.3043 25.0798 28.3043C24.8996 28.3043 24.6761 28.2115 24.4504 28.043C24.4408 28.0358 24.4309 28.0288 24.421 28.022L17.6729 23.3773C17.672 23.3766 17.6711 23.376 17.6702 23.3754L13.8549 20.7493L23.9334 11.5046C24.2816 11.1851 24.3377 10.6565 24.0641 10.2711C23.7906 9.8857 23.273 9.7642 22.8566 9.98752L8.07256 17.9156L2.32711 15.8102C2.32293 15.8086 2.31874 15.8071 2.31449 15.8056L29.3776 5.55183C29.6056 5.46539 29.7648 5.44727 29.8582 5.44727C29.9045 5.44727 30.0164 5.45239 30.055 5.49989C30.1046 5.5607 30.1669 5.76752 30.0865 6.1567Z" fill="#44C6E9"/>
</g>
</svg>
