<svg width="32" height="33" viewBox="0 0 32 33" fill="none" xmlns="http://www.w3.org/2000/svg">
<g clip-path="url(#clip0_97_3438)">
<path d="M16.0004 8.91797C11.6076 8.91797 8.03369 12.4917 8.03369 16.8845C8.03369 21.2772 11.6076 24.851 16.0004 24.851C20.3933 24.851 23.9671 21.2772 23.9671 16.8845C23.9671 12.4917 20.3933 8.91797 16.0004 8.91797ZM16.0004 22.976C12.6414 22.976 9.90869 20.2433 9.90869 16.8845C9.90869 13.5256 12.6414 10.793 16.0004 10.793C19.3594 10.793 22.0921 13.5256 22.0921 16.8845C22.0921 20.2433 19.3594 22.976 16.0004 22.976Z" fill="#44C6E9"/>
<path d="M23.5312 0.884766H8.46875C3.79906 0.884766 0 4.68383 0 9.35352V24.416C0 29.0857 3.79906 32.8848 8.46875 32.8848H23.5312C28.2009 32.8848 32 29.0857 32 24.416V9.35352C32 4.68383 28.2009 0.884766 23.5312 0.884766ZM30.125 24.416C30.125 28.0518 27.1671 31.0098 23.5312 31.0098H8.46875C4.83294 31.0098 1.875 28.0518 1.875 24.416V9.35352C1.875 5.7177 4.83294 2.75977 8.46875 2.75977H23.5312C27.1671 2.75977 30.125 5.7177 30.125 9.35352V24.416Z" fill="#44C6E9"/>
<path d="M24.9126 7.03516C24.6657 7.03516 24.4245 7.13516 24.2501 7.31016C24.0751 7.48453 23.9751 7.72578 23.9751 7.97266C23.9751 8.21953 24.0752 8.46141 24.2501 8.63578C24.4245 8.81016 24.6657 8.91016 24.9126 8.91016C25.1595 8.91016 25.4013 8.81016 25.5757 8.63578C25.7501 8.46141 25.8501 8.21953 25.8501 7.97266C25.8501 7.72641 25.7501 7.48453 25.5757 7.31016C25.4013 7.13516 25.1595 7.03516 24.9126 7.03516Z" fill="#44C6E9"/>
</g>
<defs>
<clipPath id="clip0_97_3438">
<rect width="32" height="32" fill="white" transform="translate(0 0.884766)"/>
</clipPath>
</defs>
</svg>
