<svg width="24" height="24" viewBox="0 0 24 24" fill="none" xmlns="http://www.w3.org/2000/svg">
<path d="M12.0002 12.9933L6.9597 18.0338C6.82137 18.1721 6.6567 18.2409 6.4657 18.2401C6.27454 18.2391 6.10812 18.1677 5.96645 18.0261C5.82995 17.8844 5.76303 17.7209 5.7657 17.5356C5.7682 17.3504 5.8377 17.1896 5.9742 17.0531L11.007 12.0001L5.9742 6.94706C5.84404 6.81706 5.77737 6.65781 5.7742 6.46931C5.77104 6.28081 5.8377 6.11572 5.9742 5.97406C6.1107 5.83239 6.27287 5.75947 6.4607 5.75531C6.64854 5.75114 6.81487 5.81989 6.9597 5.96156L12.0002 11.0068L17.0455 5.96156C17.1806 5.82639 17.3437 5.75922 17.5347 5.76006C17.7259 5.76106 17.8939 5.83239 18.0387 5.97406C18.172 6.11572 18.2374 6.27922 18.2347 6.46456C18.2322 6.64972 18.1627 6.81056 18.0262 6.94706L12.9935 12.0001L18.0262 17.0531C18.1564 17.1831 18.223 17.3423 18.2262 17.5308C18.2294 17.7193 18.1627 17.8844 18.0262 18.0261C17.8897 18.1677 17.7275 18.2406 17.5397 18.2448C17.3519 18.249 17.1871 18.1786 17.0455 18.0338L12.0002 12.9933Z" fill="#FF4E4C"/>
</svg>
