<svg width="32" height="33" viewBox="0 0 32 33" fill="none" xmlns="http://www.w3.org/2000/svg">
<g clip-path="url(#clip0_97_3444)">
<path d="M27.3136 5.57102C24.2916 2.54902 20.2736 0.884766 15.9999 0.884766C15.9996 0.884766 16 0.884766 15.9998 0.884766C11.7264 0.884766 7.70813 2.5492 4.68625 5.57102C1.66431 8.59302 0 12.611 0 16.8848C0.000125 19.6053 0.6925 22.2793 2.00575 24.6443L0.034625 31.6948C-0.0565 32.0208 0.03525 32.3707 0.274625 32.6101C0.514 32.8495 0.86375 32.9411 1.19 32.8501L8.24069 30.8789C10.6054 32.1923 13.2792 32.8847 15.9999 32.8848C20.2738 32.8848 24.2917 31.2205 27.3137 28.1985C30.3358 25.1765 32 21.1585 32 16.8847C31.9999 12.6109 30.3355 8.59302 27.3136 5.57102ZM15.9999 31.0098C13.4783 31.0097 11.0031 30.3365 8.84169 29.0628C8.69613 28.977 8.53163 28.933 8.36575 28.933C8.28113 28.933 8.19625 28.9445 8.11331 28.9676L2.28869 30.596L3.91706 24.7716C3.98575 24.526 3.95138 24.263 3.82194 24.0433C2.54831 21.8816 1.87513 19.4062 1.875 16.8847C1.875 13.1118 3.34425 9.5647 6.01213 6.89683C8.68 4.22895 12.2271 2.75977 15.9999 2.75977C23.7882 2.75977 30.1248 9.0962 30.125 16.8847C30.125 24.6733 23.7885 31.0098 15.9999 31.0098Z" fill="#44C6E9"/>
<path d="M22.9067 18.0838C22.3336 17.5107 21.5694 17.1951 20.7549 17.1951C19.9404 17.1951 19.1763 17.5107 18.6034 18.0837L18.1687 18.5183C18.0616 18.6254 17.9175 18.6845 17.7632 18.6845C17.6087 18.6845 17.4647 18.6254 17.3573 18.5181L14.3652 15.5261C14.2581 15.4189 14.1991 15.2748 14.199 15.1204C14.199 14.9659 14.2579 14.8219 14.365 14.7149L14.7997 14.2802C15.9862 13.0938 15.9862 11.1632 14.7998 9.97681L13.9304 9.10712C13.3572 8.53419 12.5931 8.21875 11.7786 8.21875C10.9642 8.21875 10.2001 8.53425 9.62693 9.10738L8.97868 9.75575C7.60812 11.1263 7.11062 13.1673 7.57768 15.5029C8.01724 17.7007 9.27368 19.9256 11.1156 21.7677C13.4368 24.0886 16.3931 25.4744 19.0237 25.4746H19.0242C20.6818 25.4746 22.1009 24.9318 23.1277 23.905L23.776 23.2567C24.9624 22.0702 24.9624 20.1396 23.776 18.9531L22.9067 18.0838ZM22.4502 21.9309L21.8019 22.5792C21.1343 23.2467 20.1739 23.5996 19.0243 23.5996H19.024C16.8795 23.5994 14.4187 22.419 12.4416 20.4419C10.8584 18.8587 9.78406 16.9741 9.41637 15.1353C9.07618 13.4342 9.39162 11.9946 10.3046 11.0816L10.9528 10.4332C11.1717 10.2144 11.465 10.0938 11.7787 10.0938C12.0925 10.0938 12.3859 10.2144 12.6047 10.4331L13.474 11.3026C13.9294 11.7581 13.9294 12.499 13.4741 12.9544L13.0393 13.3891C12.578 13.8503 12.324 14.4653 12.3241 15.1207C12.3241 15.7759 12.5782 16.3909 13.0395 16.8521L16.0316 19.844C16.4929 20.3055 17.1079 20.5596 17.7632 20.5596C18.4184 20.5596 19.0333 20.3056 19.4946 19.8443L19.9292 19.4097C20.1481 19.1907 20.4414 19.0702 20.755 19.0702C21.0687 19.0702 21.3619 19.1908 21.5809 19.4097L22.4502 20.2791C22.9056 20.7344 22.9057 21.4754 22.4502 21.9309Z" fill="#44C6E9"/>
</g>
<defs>
<clipPath id="clip0_97_3444">
<rect width="32" height="32" fill="white" transform="translate(0 0.884766)"/>
</clipPath>
</defs>
</svg>
