<svg width="18" height="10" viewBox="0 0 18 10" fill="none" xmlns="http://www.w3.org/2000/svg">
<path d="M12.1211 4.70255V0.487553C12.1211 0.185553 12.5051 0.0335525 12.7301 0.247553L17.1501 4.46155C17.1829 4.49241 17.2091 4.52967 17.227 4.57103C17.2449 4.6124 17.2541 4.65699 17.2541 4.70205C17.2541 4.74712 17.2449 4.79171 17.227 4.83307C17.2091 4.87443 17.1829 4.91169 17.1501 4.94255L12.7301 9.15655C12.5051 9.37155 12.1211 9.21955 12.1211 8.91655V4.70255Z" fill="black"/>
<path d="M5.87913 4.70255V0.487553C5.87913 0.185553 5.49513 0.0335525 5.27013 0.247553L0.85013 4.46155C0.817286 4.49241 0.79111 4.52967 0.773217 4.57103C0.755325 4.6124 0.746094 4.65699 0.746094 4.70205C0.746094 4.74712 0.755325 4.79171 0.773217 4.83307C0.79111 4.87443 0.817286 4.91169 0.85013 4.94255L5.27013 9.15655C5.49513 9.37155 5.87913 9.21955 5.87913 8.91655V4.70255Z" fill="black"/>
</svg>
