<svg width="40" height="40" viewBox="0 0 40 40" fill="none" xmlns="http://www.w3.org/2000/svg">
<path d="M14.1665 27.4071V12.5929C14.1665 12.1529 14.3175 11.7918 14.6194 11.5096C14.9214 11.2276 15.2737 11.0867 15.6765 11.0867C15.8023 11.0867 15.9343 11.1049 16.0723 11.1413C16.2104 11.1774 16.3422 11.2318 16.4678 11.3046L28.1278 18.7275C28.3566 18.8836 28.5282 19.0706 28.6423 19.2883C28.7568 19.5064 28.814 19.7436 28.814 20C28.814 20.2564 28.7568 20.4936 28.6423 20.7117C28.5282 20.9294 28.3566 21.1164 28.1278 21.2725L16.4678 28.6954C16.3419 28.7682 16.2097 28.8226 16.0711 28.8588C15.9328 28.8951 15.8007 28.9133 15.6748 28.9133C15.2718 28.9133 14.9197 28.7724 14.6186 28.4904C14.3172 28.2082 14.1665 27.8471 14.1665 27.4071Z" fill="white"/>
</svg>
