<svg xmlns="http://www.w3.org/2000/svg"><defs><clipPath id="clip0_97_3389"><rect width="16" height="16"></rect></clipPath><clipPath id="clip0_97_3438"><rect width="32" height="32" transform="translate(0 0.884766)"></rect></clipPath><clipPath id="clip0_97_3444"><rect width="32" height="32" transform="translate(0 0.884766)"></rect></clipPath></defs><symbol id="icon-arrow-down" viewBox="0 0 40 40"><path d="M20.0001 25.0896L29.423 15.6667L27.6667 13.9104L20.0001 21.5771L12.3334 13.9104L10.5771 15.6667L20.0001 25.0896Z"></path></symbol><symbol id="icon-arrow" viewBox="0 0 24 24"><path d="M4 11H16.17L10.58 5.41L12 4L20 12L12 20L10.59 18.59L16.17 13H4V11Z"></path></symbol><symbol id="icon-check" viewBox="0 0 16 16"><g clip-path="url(#clip0_97_3389)"><path d="M15.7657 2.35933C15.4533 2.04689 14.9468 2.04689 14.6343 2.35933L5.04983 11.9439L1.3657 8.2598C1.0533 7.94736 0.546797 7.94739 0.234328 8.2598C-0.0781094 8.5722 -0.0781094 9.0787 0.234328 9.39114L4.48414 13.6409C4.79645 13.9533 5.30333 13.9531 5.61552 13.6409L15.7657 3.4907C16.0781 3.1783 16.0781 2.67177 15.7657 2.35933Z"></path></g></symbol><symbol id="icon-close" viewBox="0 0 16 16"><path d="M9.46585 8.01334L15.6959 1.77797C16.1014 1.37239 16.1014 0.71661 15.6959 0.311025C15.2907 -0.0945603 14.6354 -0.0945603 14.2302 0.311025L7.99991 6.5464L1.76983 0.311025C1.36438 -0.0945603 0.709336 -0.0945603 0.304082 0.311025C-0.101361 0.71661 -0.101361 1.37239 0.304082 1.77797L6.53416 8.01334L0.304082 14.2487C-0.101361 14.6543 -0.101361 15.3101 0.304082 15.7157C0.506045 15.918 0.771595 16.0196 1.03695 16.0196C1.30232 16.0196 1.56768 15.918 1.76983 15.7157L7.99991 9.48029L14.2302 15.7157C14.4323 15.918 14.6977 16.0196 14.9631 16.0196C15.2284 16.0196 15.4938 15.918 15.6959 15.7157C16.1014 15.3101 16.1014 14.6543 15.6959 14.2487L9.46585 8.01334Z"></path></symbol><symbol id="icon-cross" viewBox="0 0 24 24"><path d="M12.0002 12.9933L6.9597 18.0338C6.82137 18.1721 6.6567 18.2409 6.4657 18.2401C6.27454 18.2391 6.10812 18.1677 5.96645 18.0261C5.82995 17.8844 5.76303 17.7209 5.7657 17.5356C5.7682 17.3504 5.8377 17.1896 5.9742 17.0531L11.007 12.0001L5.9742 6.94706C5.84404 6.81706 5.77737 6.65781 5.7742 6.46931C5.77104 6.28081 5.8377 6.11572 5.9742 5.97406C6.1107 5.83239 6.27287 5.75947 6.4607 5.75531C6.64854 5.75114 6.81487 5.81989 6.9597 5.96156L12.0002 11.0068L17.0455 5.96156C17.1806 5.82639 17.3437 5.75922 17.5347 5.76006C17.7259 5.76106 17.8939 5.83239 18.0387 5.97406C18.172 6.11572 18.2374 6.27922 18.2347 6.46456C18.2322 6.64972 18.1627 6.81056 18.0262 6.94706L12.9935 12.0001L18.0262 17.0531C18.1564 17.1831 18.223 17.3423 18.2262 17.5308C18.2294 17.7193 18.1627 17.8844 18.0262 18.0261C17.8897 18.1677 17.7275 18.2406 17.5397 18.2448C17.3519 18.249 17.1871 18.1786 17.0455 18.0338L12.0002 12.9933Z"></path></symbol><symbol id="icon-info" viewBox="0 0 22 24"><path d="M10.9999 0C8.25829 0 5.68073 1.06763 3.74212 3.00628C1.80351 4.94484 0.73584 7.52241 0.73584 10.264C0.73584 13.5094 2.27306 16.5583 4.86604 18.4935V23.2969C4.86604 23.563 5.01628 23.8063 5.25412 23.9255C5.35378 23.9754 5.46168 24 5.56907 24C5.71809 24 5.86617 23.9527 5.99001 23.8602L10.4679 20.5144C10.6457 20.5235 10.8238 20.5282 10.9999 20.5282C13.7415 20.5282 16.3191 19.4605 18.2577 17.5219C20.1963 15.5832 21.264 13.0057 21.264 10.264C21.264 7.52241 20.1963 4.94484 18.2577 3.00628C16.3191 1.06763 13.7415 0 10.9999 0ZM10.9999 19.1219C10.7712 19.1219 10.5386 19.113 10.3085 19.0952C10.1384 19.0821 9.96998 19.1311 9.83362 19.233L6.27229 21.8939V18.1331C6.27229 17.9022 6.15895 17.6861 5.96901 17.5548C3.57271 15.8979 2.14204 13.1724 2.14204 10.264C2.14209 5.37984 6.11573 1.40625 10.9999 1.40625C15.8841 1.40625 19.8577 5.37984 19.8577 10.264C19.8577 15.1483 15.8841 19.1219 10.9999 19.1219ZM12.1492 8.10164H9.85078C9.46246 8.10164 9.14765 8.41645 9.14765 8.80477V15.9298C9.14765 16.3181 9.46246 16.6329 9.85078 16.6329H12.1492C12.5375 16.6329 12.8523 16.3181 12.8523 15.9298V8.80477C12.8523 8.41645 12.5375 8.10164 12.1492 8.10164ZM11.446 15.2266H10.5539V9.50789H11.446V15.2266ZM10.9999 7.42195C12.0209 7.42195 12.8515 6.59133 12.8515 5.57039C12.8515 4.54945 12.0209 3.71883 10.9999 3.71883C9.97898 3.71883 9.14836 4.54945 9.14836 5.57039C9.14836 6.59133 9.97898 7.42195 10.9999 7.42195ZM10.9999 5.12508C11.2454 5.12508 11.4452 5.32486 11.4452 5.57039C11.4452 5.81592 11.2454 6.0157 10.9999 6.0157C10.7544 6.0157 10.5546 5.81592 10.5546 5.57039C10.5546 5.32486 10.7544 5.12508 10.9999 5.12508Z"></path></symbol><symbol id="icon-insta" viewBox="0 0 32 33"><g clip-path="url(#clip0_97_3438)"><path d="M16.0004 8.91797C11.6076 8.91797 8.03369 12.4917 8.03369 16.8845C8.03369 21.2772 11.6076 24.851 16.0004 24.851C20.3933 24.851 23.9671 21.2772 23.9671 16.8845C23.9671 12.4917 20.3933 8.91797 16.0004 8.91797ZM16.0004 22.976C12.6414 22.976 9.90869 20.2433 9.90869 16.8845C9.90869 13.5256 12.6414 10.793 16.0004 10.793C19.3594 10.793 22.0921 13.5256 22.0921 16.8845C22.0921 20.2433 19.3594 22.976 16.0004 22.976Z"></path><path d="M23.5312 0.884766H8.46875C3.79906 0.884766 0 4.68383 0 9.35352V24.416C0 29.0857 3.79906 32.8848 8.46875 32.8848H23.5312C28.2009 32.8848 32 29.0857 32 24.416V9.35352C32 4.68383 28.2009 0.884766 23.5312 0.884766ZM30.125 24.416C30.125 28.0518 27.1671 31.0098 23.5312 31.0098H8.46875C4.83294 31.0098 1.875 28.0518 1.875 24.416V9.35352C1.875 5.7177 4.83294 2.75977 8.46875 2.75977H23.5312C27.1671 2.75977 30.125 5.7177 30.125 9.35352V24.416Z"></path><path d="M24.9126 7.03516C24.6657 7.03516 24.4245 7.13516 24.2501 7.31016C24.0751 7.48453 23.9751 7.72578 23.9751 7.97266C23.9751 8.21953 24.0752 8.46141 24.2501 8.63578C24.4245 8.81016 24.6657 8.91016 24.9126 8.91016C25.1595 8.91016 25.4013 8.81016 25.5757 8.63578C25.7501 8.46141 25.8501 8.21953 25.8501 7.97266C25.8501 7.72641 25.7501 7.48453 25.5757 7.31016C25.4013 7.13516 25.1595 7.03516 24.9126 7.03516Z"></path></g></symbol><symbol id="icon-mail" viewBox="0 0 24 18"><path d="M23.2969 0.449219H0.703125C0.314812 0.449219 0 0.764031 0 1.15234V16.6174C0 17.0058 0.314812 17.3206 0.703125 17.3206H23.2969C23.6852 17.3206 24 17.0058 24 16.6174V1.15234C24 0.764031 23.6852 0.449219 23.2969 0.449219ZM22.5938 15.1638L14.6797 8.89745L22.5938 2.63102V15.1638ZM1.40625 2.63102L9.3203 8.89741L1.40625 15.1639V2.63102ZM12 9.22558L2.69208 1.85547H21.3079L12 9.22558ZM10.4529 9.79427L11.5635 10.6736C11.6914 10.7749 11.8457 10.8255 12 10.8255C12.1543 10.8255 12.3086 10.7749 12.4365 10.6736L13.5471 9.79427L21.2762 15.9143H2.72381L10.4529 9.79427Z"></path></symbol><symbol id="icon-menu-arrow" viewBox="0 0 8 12"><path d="M7.05387 6L1.40012 0.346252L0.505371 1.241L5.26437 6L0.505371 10.759L1.40012 11.6538L7.05387 6Z"></path></symbol><symbol id="icon-phone" viewBox="0 0 24 24"><path d="M5.88656 18.1134C9.20409 21.4309 13.4151 23.5165 17.744 23.9859C17.8324 23.9955 17.9197 24.0002 18.006 24.0002C18.5667 24.0002 19.0777 23.7984 19.4961 23.4089L23.2763 19.8897C23.7868 19.4145 24.048 18.7488 23.9929 18.0632C23.9383 17.3841 23.5784 16.7748 23.0054 16.3918L19.5194 14.0614C18.6226 13.4619 17.4635 13.576 16.7007 14.3388C16.5512 14.4883 16.4059 14.6473 16.2521 14.8158C15.5536 15.5805 15.0175 16.1097 14.4796 15.9515C11.5067 15.0779 8.92219 12.4934 8.04853 9.52047C7.95942 9.21733 8.03344 8.92727 8.25689 8.70382C8.37872 8.58199 8.52075 8.45102 8.67108 8.31232C9.13908 7.88069 9.66956 7.39141 10.0004 6.80918C10.568 5.81013 10.2801 4.99155 9.93863 4.48076L7.60824 0.994709C7.22517 0.421709 6.61599 0.0618023 5.93681 0.00723982C5.25131 -0.0478383 4.58555 0.213302 4.11033 0.723771L0.591048 4.50396C0.141658 4.98668 -0.0578424 5.59254 0.0141107 6.25601C0.48347 10.5849 2.56903 14.7959 5.88656 18.1134ZM1.62033 5.46213L5.13956 1.68185C5.30461 1.50461 5.52722 1.40622 5.75859 1.40622C5.78039 1.40622 5.80224 1.40711 5.82413 1.40885C6.07589 1.4291 6.29428 1.55951 6.43913 1.77611L8.76947 5.26216C9.14199 5.81941 8.7645 6.31296 7.7176 7.27854C7.55649 7.42708 7.40433 7.56747 7.26244 7.70936C6.67589 8.29587 6.46538 9.12115 6.69928 9.91694C7.70236 13.3302 10.6697 16.2976 14.083 17.3007C14.2938 17.3626 14.4959 17.3906 14.6898 17.3906C15.8048 17.3905 16.6487 16.4667 17.2904 15.764C17.4331 15.6078 17.568 15.4601 17.695 15.3331C17.9772 15.0509 18.406 15.0087 18.7378 15.2305L22.2238 17.5608C22.4404 17.7057 22.5709 17.9241 22.5911 18.1758C22.6115 18.4304 22.512 18.6798 22.3181 18.8604L18.5378 22.3796C18.358 22.5471 18.1479 22.6151 17.8955 22.5878C9.55669 21.6836 2.31638 14.4433 1.41216 6.10441C1.38478 5.85208 1.45289 5.64199 1.62033 5.46213Z"></path></symbol><symbol id="icon-pin" viewBox="0 0 20 25"><path d="M3.29421 16.8747L9.44942 24.6191C9.58278 24.787 9.78542 24.8848 9.99982 24.8848C10.2142 24.8848 10.4169 24.787 10.5503 24.6191L16.7055 16.8747C18.2885 14.883 19.1902 12.4992 19.2446 10.1624C19.3031 7.64311 18.4067 5.38416 16.6522 3.62972C14.8821 1.85962 12.5195 0.884766 9.99982 0.884766C7.48011 0.884766 5.11756 1.85962 3.34746 3.62972C1.59298 5.3842 0.696589 7.64316 0.755136 10.1624C0.809464 12.4991 1.7112 14.883 3.29421 16.8747ZM4.34182 4.62408C5.90178 3.06417 7.95082 2.28422 9.99982 2.28422C12.0489 2.28422 14.0979 3.06417 15.6578 4.62408C18.6064 7.57261 18.5845 12.2505 15.6046 15.9998L9.99982 23.0516L4.39507 15.9998C1.41518 12.2505 1.39334 7.57261 4.34182 4.62408ZM9.99982 13.9383C12.0007 13.9383 13.6286 12.3104 13.6286 10.3095C13.6286 8.30859 12.0008 6.68072 9.99982 6.68072C7.99887 6.68072 6.371 8.30859 6.371 10.3095C6.371 12.3104 7.99892 13.9383 9.99982 13.9383ZM9.99982 8.08697C11.2253 8.08697 12.2224 9.084 12.2224 10.3095C12.2224 11.535 11.2253 12.532 9.99982 12.532C8.77428 12.532 7.77725 11.535 7.77725 10.3095C7.77725 9.084 8.77432 8.08697 9.99982 8.08697Z"></path></symbol><symbol id="icon-play-arrow" viewBox="0 0 40 40"><path d="M14.1665 27.4071V12.5929C14.1665 12.1529 14.3175 11.7918 14.6194 11.5096C14.9214 11.2276 15.2737 11.0867 15.6765 11.0867C15.8023 11.0867 15.9343 11.1049 16.0723 11.1413C16.2104 11.1774 16.3422 11.2318 16.4678 11.3046L28.1278 18.7275C28.3566 18.8836 28.5282 19.0706 28.6423 19.2883C28.7568 19.5064 28.814 19.7436 28.814 20C28.814 20.2564 28.7568 20.4936 28.6423 20.7117C28.5282 20.9294 28.3566 21.1164 28.1278 21.2725L16.4678 28.6954C16.3419 28.7682 16.2097 28.8226 16.0711 28.8588C15.9328 28.8951 15.8007 28.9133 15.6748 28.9133C15.2718 28.9133 14.9197 28.7724 14.6186 28.4904C14.3172 28.2082 14.1665 27.8471 14.1665 27.4071Z"></path></symbol><symbol id="icon-plus" viewBox="0 0 14 14"><path d="M14 8H8V14H6V8H0V6H6V0H8V6H14V8Z"></path></symbol><symbol id="icon-star" viewBox="0 0 27 26"><path d="M13.8567 0.5L16.9594 10.0492H26.9999L18.8769 15.9509L21.9796 25.5L13.8567 19.5983L5.73366 25.5L8.83637 15.9509L0.713379 10.0492H10.7539L13.8567 0.5Z"></path></symbol><symbol id="icon-success-circle" viewBox="0 0 60 60"><path d="M26.4519 35.3656L20.6444 29.5575C20.2981 29.2117 19.8629 29.0346 19.3388 29.0263C18.815 29.0183 18.3719 29.1954 18.0094 29.5575C17.6473 29.92 17.4662 30.3592 17.4662 30.875C17.4662 31.3908 17.6473 31.83 18.0094 32.1925L24.87 39.0531C25.3221 39.5048 25.8494 39.7306 26.4519 39.7306C27.0544 39.7306 27.5817 39.5048 28.0338 39.0531L41.9425 25.1444C42.2883 24.7981 42.4654 24.3629 42.4738 23.8387C42.4817 23.315 42.3046 22.8719 41.9425 22.5094C41.58 22.1473 41.1408 21.9663 40.625 21.9663C40.1092 21.9663 39.67 22.1473 39.3075 22.5094L26.4519 35.3656ZM30.0044 53.75C26.7194 53.75 23.6317 53.1267 20.7412 51.88C17.8508 50.6333 15.3367 48.9415 13.1987 46.8044C11.0608 44.6673 9.36812 42.1542 8.12062 39.265C6.87354 36.3758 6.25 33.289 6.25 30.0044C6.25 26.7194 6.87333 23.6317 8.12 20.7412C9.36667 17.8508 11.0585 15.3367 13.1956 13.1987C15.3327 11.0608 17.8458 9.36812 20.735 8.12062C23.6242 6.87354 26.711 6.25 29.9956 6.25C33.2806 6.25 36.3683 6.87333 39.2588 8.12C42.1492 9.36667 44.6633 11.0585 46.8013 13.1956C48.9392 15.3327 50.6319 17.8458 51.8794 20.735C53.1265 23.6242 53.75 26.711 53.75 29.9956C53.75 33.2806 53.1267 36.3683 51.88 39.2588C50.6333 42.1492 48.9415 44.6633 46.8044 46.8013C44.6673 48.9392 42.1542 50.6319 39.265 51.8794C36.3758 53.1265 33.289 53.75 30.0044 53.75ZM30 50C35.5833 50 40.3125 48.0625 44.1875 44.1875C48.0625 40.3125 50 35.5833 50 30C50 24.4167 48.0625 19.6875 44.1875 15.8125C40.3125 11.9375 35.5833 10 30 10C24.4167 10 19.6875 11.9375 15.8125 15.8125C11.9375 19.6875 10 24.4167 10 30C10 35.5833 11.9375 40.3125 15.8125 44.1875C19.6875 48.0625 24.4167 50 30 50Z"></path></symbol><symbol id="icon-swipe" viewBox="0 0 18 10"><path d="M12.1211 4.70255V0.487553C12.1211 0.185553 12.5051 0.0335525 12.7301 0.247553L17.1501 4.46155C17.1829 4.49241 17.2091 4.52967 17.227 4.57103C17.2449 4.6124 17.2541 4.65699 17.2541 4.70205C17.2541 4.74712 17.2449 4.79171 17.227 4.83307C17.2091 4.87443 17.1829 4.91169 17.1501 4.94255L12.7301 9.15655C12.5051 9.37155 12.1211 9.21955 12.1211 8.91655V4.70255Z"></path><path d="M5.87913 4.70255V0.487553C5.87913 0.185553 5.49513 0.0335525 5.27013 0.247553L0.85013 4.46155C0.817286 4.49241 0.79111 4.52967 0.773217 4.57103C0.755325 4.6124 0.746094 4.65699 0.746094 4.70205C0.746094 4.74712 0.755325 4.79171 0.773217 4.83307C0.79111 4.87443 0.817286 4.91169 0.85013 4.94255L5.27013 9.15655C5.49513 9.37155 5.87913 9.21955 5.87913 8.91655V4.70255Z"></path></symbol><symbol id="icon-tg" viewBox="0 0 32 33"><mask id="mask0_97_3449" style="mask-type:luminance" maskUnits="userSpaceOnUse" x="0" y="0" width="32" height="33"><path d="M31.9988 0.884766H0V32.8668H31.9988V0.884766Z"></path></mask><g mask="url(#mask0_97_3449)"><path d="M31.5089 4.31589C31.1184 3.83639 30.5322 3.57227 29.8582 3.57227C29.4946 3.57227 29.1093 3.64839 28.7132 3.79845L1.62224 14.0628C0.181802 14.6087 -0.0120728 15.4304 0.000552172 15.8716C0.0131147 16.3106 0.251302 17.114 1.70118 17.5777L7.4465 19.6831L10.4744 26.6142C10.7788 27.5728 11.4148 28.2453 12.2266 28.4635C12.4137 28.5138 12.6048 28.5385 12.7972 28.5385C13.4564 28.5385 14.1314 28.2482 14.7144 27.7007L17.223 25.3438L23.3439 29.5568C23.8952 29.9642 24.495 30.1793 25.0799 30.1793C26.267 30.1792 27.2138 29.3102 27.492 27.9653L31.9227 6.53639C32.1048 5.6557 31.9578 4.86714 31.5089 4.31589ZM9.35056 19.3578L17.1688 15.1653L11.72 20.1633C11.526 20.3413 11.4179 20.592 11.4176 20.8532C11.4173 20.8628 11.4161 20.8722 11.416 20.8818L11.3972 24.0426L9.35056 19.3578ZM13.4306 26.3341C13.3728 26.3884 13.3149 26.4361 13.2576 26.4777L13.2806 22.6301L15.6425 24.2559L13.4306 26.3341ZM30.0865 6.1567L25.6559 27.5856C25.6112 27.8016 25.4656 28.3043 25.0798 28.3043C24.8996 28.3043 24.6761 28.2115 24.4504 28.043C24.4408 28.0358 24.4309 28.0288 24.421 28.022L17.6729 23.3773C17.672 23.3766 17.6711 23.376 17.6702 23.3754L13.8549 20.7493L23.9334 11.5046C24.2816 11.1851 24.3377 10.6565 24.0641 10.2711C23.7906 9.8857 23.273 9.7642 22.8566 9.98752L8.07256 17.9156L2.32711 15.8102C2.32293 15.8086 2.31874 15.8071 2.31449 15.8056L29.3776 5.55183C29.6056 5.46539 29.7648 5.44727 29.8582 5.44727C29.9045 5.44727 30.0164 5.45239 30.055 5.49989C30.1046 5.5607 30.1669 5.76752 30.0865 6.1567Z"></path></g></symbol><symbol id="icon-whatsapp" viewBox="0 0 32 33"><g clip-path="url(#clip0_97_3444)"><path d="M27.3136 5.57102C24.2916 2.54902 20.2736 0.884766 15.9999 0.884766C15.9996 0.884766 16 0.884766 15.9998 0.884766C11.7264 0.884766 7.70813 2.5492 4.68625 5.57102C1.66431 8.59302 0 12.611 0 16.8848C0.000125 19.6053 0.6925 22.2793 2.00575 24.6443L0.034625 31.6948C-0.0565 32.0208 0.03525 32.3707 0.274625 32.6101C0.514 32.8495 0.86375 32.9411 1.19 32.8501L8.24069 30.8789C10.6054 32.1923 13.2792 32.8847 15.9999 32.8848C20.2738 32.8848 24.2917 31.2205 27.3137 28.1985C30.3358 25.1765 32 21.1585 32 16.8847C31.9999 12.6109 30.3355 8.59302 27.3136 5.57102ZM15.9999 31.0098C13.4783 31.0097 11.0031 30.3365 8.84169 29.0628C8.69613 28.977 8.53163 28.933 8.36575 28.933C8.28113 28.933 8.19625 28.9445 8.11331 28.9676L2.28869 30.596L3.91706 24.7716C3.98575 24.526 3.95138 24.263 3.82194 24.0433C2.54831 21.8816 1.87513 19.4062 1.875 16.8847C1.875 13.1118 3.34425 9.5647 6.01213 6.89683C8.68 4.22895 12.2271 2.75977 15.9999 2.75977C23.7882 2.75977 30.1248 9.0962 30.125 16.8847C30.125 24.6733 23.7885 31.0098 15.9999 31.0098Z"></path><path d="M22.9067 18.0838C22.3336 17.5107 21.5694 17.1951 20.7549 17.1951C19.9404 17.1951 19.1763 17.5107 18.6034 18.0837L18.1687 18.5183C18.0616 18.6254 17.9175 18.6845 17.7632 18.6845C17.6087 18.6845 17.4647 18.6254 17.3573 18.5181L14.3652 15.5261C14.2581 15.4189 14.1991 15.2748 14.199 15.1204C14.199 14.9659 14.2579 14.8219 14.365 14.7149L14.7997 14.2802C15.9862 13.0938 15.9862 11.1632 14.7998 9.97681L13.9304 9.10712C13.3572 8.53419 12.5931 8.21875 11.7786 8.21875C10.9642 8.21875 10.2001 8.53425 9.62693 9.10738L8.97868 9.75575C7.60812 11.1263 7.11062 13.1673 7.57768 15.5029C8.01724 17.7007 9.27368 19.9256 11.1156 21.7677C13.4368 24.0886 16.3931 25.4744 19.0237 25.4746H19.0242C20.6818 25.4746 22.1009 24.9318 23.1277 23.905L23.776 23.2567C24.9624 22.0702 24.9624 20.1396 23.776 18.9531L22.9067 18.0838ZM22.4502 21.9309L21.8019 22.5792C21.1343 23.2467 20.1739 23.5996 19.0243 23.5996H19.024C16.8795 23.5994 14.4187 22.419 12.4416 20.4419C10.8584 18.8587 9.78406 16.9741 9.41637 15.1353C9.07618 13.4342 9.39162 11.9946 10.3046 11.0816L10.9528 10.4332C11.1717 10.2144 11.465 10.0938 11.7787 10.0938C12.0925 10.0938 12.3859 10.2144 12.6047 10.4331L13.474 11.3026C13.9294 11.7581 13.9294 12.499 13.4741 12.9544L13.0393 13.3891C12.578 13.8503 12.324 14.4653 12.3241 15.1207C12.3241 15.7759 12.5782 16.3909 13.0395 16.8521L16.0316 19.844C16.4929 20.3055 17.1079 20.5596 17.7632 20.5596C18.4184 20.5596 19.0333 20.3056 19.4946 19.8443L19.9292 19.4097C20.1481 19.1907 20.4414 19.0702 20.755 19.0702C21.0687 19.0702 21.3619 19.1908 21.5809 19.4097L22.4502 20.2791C22.9056 20.7344 22.9057 21.4754 22.4502 21.9309Z"></path></g></symbol></svg>