<svg width="24" height="25" viewBox="0 0 24 25" fill="none" xmlns="http://www.w3.org/2000/svg">
<path d="M12 13.9L7.10005 18.8C6.91672 18.9833 6.68338 19.075 6.40005 19.075C6.11672 19.075 5.88338 18.9833 5.70005 18.8C5.51672 18.6167 5.42505 18.3833 5.42505 18.1C5.42505 17.8167 5.51672 17.5833 5.70005 17.4L10.6 12.5L5.70005 7.59999C5.51672 7.41665 5.42505 7.18332 5.42505 6.89999C5.42505 6.61665 5.51672 6.38332 5.70005 6.19999C5.88338 6.01665 6.11672 5.92499 6.40005 5.92499C6.68338 5.92499 6.91672 6.01665 7.10005 6.19999L12 11.1L16.9 6.19999C17.0834 6.01665 17.3167 5.92499 17.6 5.92499C17.8834 5.92499 18.1167 6.01665 18.3 6.19999C18.4834 6.38332 18.575 6.61665 18.575 6.89999C18.575 7.18332 18.4834 7.41665 18.3 7.59999L13.4 12.5L18.3 17.4C18.4834 17.5833 18.575 17.8167 18.575 18.1C18.575 18.3833 18.4834 18.6167 18.3 18.8C18.1167 18.9833 17.8834 19.075 17.6 19.075C17.3167 19.075 17.0834 18.9833 16.9 18.8L12 13.9Z" fill="#44C6E9"/>
</svg>
