<svg width="16" height="17" viewBox="0 0 16 17" fill="none" xmlns="http://www.w3.org/2000/svg">
<path d="M15.5312 2.98621H0.46875C0.209875 2.98621 0 3.19608 0 3.45496V13.765C0 14.0239 0.209875 14.2338 0.46875 14.2338H15.5312C15.7901 14.2338 16 14.0239 16 13.765V3.45496C16 3.19608 15.7901 2.98621 15.5312 2.98621ZM15.0625 12.796L9.78647 8.61836L15.0625 4.44074V12.796ZM0.9375 4.44074L6.21353 8.61833L0.9375 12.796V4.44074ZM8 8.83711L1.79472 3.92371H14.2052L8 8.83711ZM6.96863 9.21624L7.709 9.80249C7.79425 9.86999 7.89712 9.90374 8 9.90374C8.10287 9.90374 8.20575 9.86999 8.291 9.80249L9.03137 9.21624L14.1842 13.2962H1.81588L6.96863 9.21624Z" fill="#44C6E9"/>
</svg>
