<svg width="24" height="24" viewBox="0 0 24 24" fill="none" xmlns="http://www.w3.org/2000/svg">
<path d="M20.2839 22L12.9773 14.6932C12.3956 15.1735 11.7267 15.5493 10.9706 15.8208C10.2144 16.0922 9.43215 16.2279 8.62383 16.2279C6.6355 16.2279 4.95274 15.5395 3.57555 14.1627C2.19836 12.786 1.50977 11.1036 1.50977 9.11571C1.50977 7.12799 2.19817 5.44506 3.57497 4.06692C4.95177 2.68897 6.63414 2 8.62208 2C10.6098 2 12.2928 2.68858 13.6709 4.06576C15.0489 5.44293 15.7379 7.12566 15.7379 9.11396C15.7379 9.94476 15.5985 10.7382 15.3197 11.4944C15.0407 12.2505 14.6685 12.9082 14.2032 13.4674L21.5098 20.7739L20.2839 22ZM8.62383 14.4832C10.1228 14.4832 11.3924 13.963 12.4326 12.9227C13.473 11.8825 13.9932 10.6129 13.9932 9.11396C13.9932 7.61503 13.473 6.34546 12.4326 5.30527C11.3924 4.26488 10.1228 3.74468 8.62383 3.74468C7.12488 3.74468 5.85529 4.26488 4.81508 5.30527C3.77468 6.34546 3.25447 7.61503 3.25447 9.11396C3.25447 10.6129 3.77468 11.8825 4.81508 12.9227C5.85529 13.963 7.12488 14.4832 8.62383 14.4832Z" fill="#44C6E9"/>
</svg>
