<svg width="25" height="28" viewBox="0 0 25 28" fill="none" xmlns="http://www.w3.org/2000/svg">
<path fill-rule="evenodd" clip-rule="evenodd" d="M15.8765 0.946683C13.9923 1.7701 11.2728 1.7701 9.38857 0.946678C7.85764 0.277658 6.14521 0.215617 4.56515 0.916659C1.23071 2.39607 -0.264848 6.71939 1.18643 10.6194C1.18675 10.6203 1.18674 10.6212 1.18639 10.6221L1.63928 11.6266C3.17021 15.022 4.32418 18.5815 5.07966 22.2385L5.79834 25.7173C6.04704 26.7174 6.92592 27.4173 7.93303 27.4173C9.01467 27.4173 9.93629 26.6126 10.108 25.5183L11.1212 19.0613C11.2405 18.3008 11.8809 17.7416 12.6326 17.7416C13.3842 17.7416 14.0247 18.3008 14.144 19.0613L15.1571 25.5182C15.3288 26.6126 16.2505 27.4173 17.3321 27.4173C18.3392 27.4173 19.2181 26.7174 19.4668 25.7173L20.1855 22.2385C20.941 18.5815 22.0949 15.022 23.6259 11.6265L24.0788 10.6221C24.0784 10.6212 24.0784 10.6203 24.0787 10.6194C25.53 6.71939 24.0344 2.39607 20.7 0.916659C19.1199 0.21561 17.4075 0.277655 15.8765 0.946683Z" fill="url(#paint0_linear_2001_662)"/>
<defs>
<linearGradient id="paint0_linear_2001_662" x1="3.80904" y1="0.417313" x2="18.7168" y2="26.0834" gradientUnits="userSpaceOnUse">
<stop stop-color="#F0F6F9"/>
<stop offset="1" stop-color="#CDDFF2"/>
</linearGradient>
</defs>
</svg>
